# File produced by Open Asset Import Library (http://www.assimp.sf.net)
# (assimp v3.1.29665513)

mtllib Stick.obj.mtl

# 164 vertex positions
v  -0.137575 0.748607 -2.22722
v  -0.203501 0.780717 -4.08223
v  -0.144746 0.851294 -2.26999
v  -0.262053 0.684934 -4.13709
v  -0.204375 0.67047 -2.26958
v  -0.214285 0.727853 1.04119
v  -0.228739 0.890105 -4.13709
v  -0.192847 0.817646 1.01841
v  -0.119414 0.760155 4.42891
v  -0.16911 0.689682 4.42944
v  -0.292544 0.679279 1.01947
v  -0.254075 0.674993 4.43058
v  -0.222233 0.917209 -2.22567
v  -0.323687 0.947516 -4.08019
v  -0.431972 0.92196 -4.07875
v  -0.32406 0.909792 -2.22428
v  -0.392812 0.832861 -2.26661
v  -0.409699 0.868813 1.02152
v  -0.330413 0.916751 1.04322
v  -0.493036 0.827729 -4.13357
v  -0.241077 0.895442 1.04193
v  -0.1341 0.845128 4.42931
v  -0.204564 0.894826 4.43039
v  -0.289529 0.880136 4.43153
v  -0.383408 0.730701 -2.22386
v  -0.464924 0.719019 -4.07875
v  -0.306163 0.663936 -2.22508
v  -0.381859 0.701053 1.04344
v  -0.429961 0.779297 1.04429
v  -0.370288 0.660514 -4.08019
v  -0.339225 0.809664 4.43206
v  -0.324539 0.724691 4.43167
v  -0.490063 0.798458 -4.27397
v  -0.442712 0.875124 -4.27558
v  -0.355085 0.895837 -4.27944
v  -0.257852 0.760754 -4.28492
v  -0.305203 0.684088 -4.28331
v  -0.469401 0.710749 -4.27558
v  -0.357997 0.669854 -4.51816
v  -0.336801 0.634152 -4.44604
v  -0.39283 0.663375 -4.27944
v  -0.35657 0.747506 -4.54803
v  -0.254865 0.618086 -4.57566
v  -0.215489 0.593744 -4.57626
v  -0.265496 0.663145 -4.57541
v  -0.333355 0.821621 -4.51816
v  -0.241155 0.702525 -4.57566
v  -0.301952 0.848782 -4.44604
v  -0.054503 0.706372 -4.67886
v  -0.058697 0.699588 -4.67882
v  -0.1961 0.713159 -4.57626
v  -0.056865 0.691826 -4.67886
v  -0.050082 0.687632 -4.67896
v  -0.04232 0.689464 -4.67907
v  -0.170434 0.604377 -4.57686
v  -0.046742 0.708204 -4.67896
v  -0.278514 0.848463 -4.28331
v  -0.280756 0.81308 -4.37393
v  -0.282183 0.735428 -4.34406
v  -0.305398 0.661313 -4.37393
v  -0.146093 0.643758 -4.5771
v  -0.038127 0.696248 -4.67911
v  -0.039959 0.70401 -4.67907
v  -0.156724 0.688816 -4.57686
v  -0.048956 0.698568 -4.67895
v  -0.247901 0.748335 -4.15489
v  -0.316325 0.72533 -4.1531
v  -0.200295 0.822729 -4.34895
v  -0.272071 0.798675 -4.34554
v  -0.128263 0.98968 -4.50848
v  -0.180508 0.972109 -4.5078
v  -0.155061 1.0976 -4.65373
v  -0.150837 1.1061 -4.65377
v  -0.103742 1.03905 -4.50871
v  -0.339972 0.832282 -4.347
v  -0.229874 0.99663 -4.50706
v  -0.164062 1.09457 -4.65361
v  -0.172566 1.0988 -4.65348
v  -0.364221 0.903865 -4.35247
v  -0.247442 1.04888 -4.5067
v  -0.175592 1.1078 -4.65342
v  -0.404048 0.825851 -4.15473
v  -0.381003 0.757438 -4.15303
v  -0.330615 0.971491 -4.35875
v  -0.222921 1.09825 -4.50693
v  -0.163925 1.10623 -4.65358
v  -0.153864 1.11511 -4.6537
v  -0.162368 1.11933 -4.65358
v  -0.171368 1.1163 -4.65346
v  -0.303537 0.913498 -4.15899
v  -0.238858 0.881389 -4.15905
v  -0.258838 0.995545 -4.36216
v  -0.190938 0.961937 -4.3607
v  -0.215813 0.812977 -4.15736
v  -0.12131 1.0913 -4.50835
v  -0.170676 1.11582 -4.50761
v  -0.166688 0.890355 -4.35523
v  -0.371961 0.890493 -4.15719
v  -0.352943 0.861945 -4.16445
v  -0.324467 0.798521 -4.18396
v  -0.526489 0.915533 -4.29426
v  -0.511478 0.851368 -4.31312
v  -0.666371 1.03528 -4.33953
v  -0.34559 0.729599 -4.17972
v  -0.530134 0.778495 -4.31012
v  -0.655934 0.9887 -4.35488
v  -0.858651 0.982435 -4.4377
v  -0.669023 0.93559 -4.35108
v  -0.855478 0.975271 -4.44
v  -0.403939 0.695555 -4.15422
v  -0.571531 0.739602 -4.28701
v  -0.85782 0.967471 -4.43943
v  -0.69797 0.907061 -4.33034
v  -0.864284 0.973687 -4.43547
v  -0.864307 0.963603 -4.43633
v  -0.871137 0.965933 -4.43251
v  -0.874311 0.973096 -4.43021
v  -0.871969 0.980896 -4.43078
v  -0.865482 0.984765 -4.43389
v  -0.69422 1.04805 -4.31402
v  -0.49381 0.779754 -4.10287
v  -0.472687 0.848675 -4.10711
v  -0.626429 0.821636 -4.23846
v  -0.611417 0.757472 -4.25733
v  -0.465334 0.71633 -4.12238
v  -0.607772 0.894509 -4.24147
v  -0.414338 0.88272 -4.13262
v  -0.723167 1.01952 -4.29329
v  -0.736255 0.966406 -4.28948
v  -0.566375 0.933403 -4.26458
v  -0.725819 0.919826 -4.30483
v  -0.4663 0.786985 -4.05388
v  -0.428062 0.844261 -4.07307
v  -0.428472 0.62657 -4.18577
v  -0.388544 0.687254 -4.20452
v  -0.358949 0.862272 -4.06992
v  -0.315819 0.705576 -4.2026
v  -0.385853 0.447682 -4.38101
v  -0.415487 0.404924 -4.3975
v  -0.299447 0.830465 -4.04629
v  -0.334104 0.455011 -4.36529
v  -0.2529 0.670803 -4.18115
v  -0.389891 0.347063 -4.54351
v  -0.395279 0.339289 -4.54651
v  -0.380482 0.348395 -4.54066
v  -0.290555 0.422619 -4.35957
v  -0.382893 0.337086 -4.54352
v  -0.370775 0.332844 -4.541
v  -0.376163 0.32507 -4.544
v  -0.372564 0.342506 -4.53962
v  -0.385572 0.323737 -4.54686
v  -0.39349 0.329627 -4.5479
v  -0.405648 0.351786 -4.40512
v  -0.236643 0.603305 -4.15273
v  -0.280717 0.36948 -4.36719
v  -0.322648 0.710198 -3.99682
v  -0.391761 0.692187 -3.99997
v  -0.276571 0.542621 -4.13399
v  -0.349296 0.524299 -4.1359
v  -0.451264 0.723994 -4.0236
v  -0.412215 0.559072 -4.15735
v  -0.310351 0.326723 -4.38368
v  -0.3621 0.319393 -4.39939
v  -0.28441 0.767474 -4.01601

# 296 UV coordinates
vt 0.2929 0.503 0
vt 0.296 0.0312 0
vt 0.322 0.4965 0
vt 0.2605 0.0285 0
vt 0.2616 0.5 0
vt 0.2913 0.7389 0
vt 0.3249 0.0281 0
vt 0.3206 0.7306 0
vt 0.3192 0.9648 0
vt 0.2898 0.9748 0
vt 0.2622 0.7357 0
vt 0.2628 0.9714 0
vt 0.3252 0.5052 0
vt 0.3278 0.0507 0
vt 0.3582 0.5025 0
vt 0.3573 0.0485 0
vt 0.3848 0.0317 0
vt 0.3814 0.4952 0
vt 0.4159 0.4944 0
vt 0.4145 0.726 0
vt 0.3796 0.7269 0
vt 0.4188 0.0314 0
vt 0.3586 0.7295 0
vt 0.3238 0.7324 0
vt 0.3591 0.9565 0
vt 0.3779 0.9586 0
vt 0.3225 0.9596 0
vt 0.4131 0.9575 0
vt 0.1545 0.5065 0
vt 0.155 0.0214 0
vt 0.191 0.5073 0
vt 0.193 0.0255 0
vt 0.2212 0.5079 0
vt 0.2206 0.7477 0
vt 0.19 0.7482 0
vt 0.2223 0.0283 0
vt 0.1543 0.749 0
vt 0.189 0.9891 0
vt 0.22 0.9875 0
vt 0.1541 0.9916 0
vt 0.121 0.8777 0
vt 0.1347 0.773 0
vt 0.1359 0.9019 0
vt 0.147 0.8171 0
vt 0.2217 0.709 0
vt 0.2174 0.7653 0
vt 0.256 0.5037 0
vt 0.2557 0.9795 0
vt 0.226 0.5022 0
vt 0.2262 0.2649 0
vt 0.2561 0.2657 0
vt 0.2255 0.9769 0
vt 0.2265 0.0275 0
vt 0.2562 0.0278 0
vt 0.8815 0.6219 0
vt 0.9401 0.6219 0
vt 0.9815 0.6651 0
vt 0.84 0.6651 0
vt 0.84 0.7263 0
vt 0.8815 0.7695 0
vt 0.9401 0.7695 0
vt 0.9815 0.7263 0
vt 0.3986 0.8076 0
vt 0.3848 0.9124 0
vt 0.3606 0.8452 0
vt 0.3494 0.93 0
vt 0.254 0.8768 0
vt 0.3422 0.8589 0
vt 0.2484 0.8841 0
vt 0.3198 0.8695 0
vt 0.3223 0.9394 0
vt 0.2557 0.9739 0
vt 0.3356 0.8368 0
vt 0.3605 0.8131 0
vt 0.3469 0.867 0
vt 0.2732 0.8508 0
vt 0.3591 0.741 0
vt 0.3717 0.7038 0
vt 0.3249 0.7588 0
vt 0.21 0.8469 0
vt 0.2892 0.7466 0
vt 0.1862 0.9503 0
vt 0.1545 0.8824 0
vt 0.1829 0.8274 0
vt 0.2538 0.5928 0
vt 0.26 0.5949 0
vt 0.2729 0.7117 0
vt 0.2659 0.5918 0
vt 0.268 0.5854 0
vt 0.2652 0.5794 0
vt 0.3554 0.6689 0
vt 0.251 0.5868 0
vt 0.1792 0.81 0
vt 0.2078 0.8037 0
vt 0.2457 0.7755 0
vt 0.2701 0.7897 0
vt 0.5299 0.9419 0
vt 0.4934 0.8655 0
vt 0.533 0.9134 0
vt 0.533 0.8487 0
vt 0.2978 0.9763 0
vt 0.279 0.9818 0
vt 0.6981 0.5726 0
vt 0.6981 0.6671 0
vt 0.6465 0.5879 0
vt 0.6466 0.6644 0
vt 0.331 0.7234 0
vt 0.3059 0.777 0
vt 0.2928 0.8493 0
vt 0.2298 0.8432 0
vt 0.2663 0.71 0
vt 0.2291 0.7163 0
vt 0.3394 0.641 0
vt 0.3447 0.6449 0
vt 0.297 0.7329 0
vt 0.1999 0.8582 0
vt 0.2072 0.7483 0
vt 0.3458 0.6516 0
vt 0.3032 0.7717 0
vt 0.333 0.642 0
vt 0.2468 0.8515 0
vt 0.2042 0.9136 0
vt 0.3518 0.873 0
vt 0.2541 0.7131 0
vt 0.2702 0.7365 0
vt 0.2509 0.8286 0
vt 0.2702 0.8658 0
vt 0.8532 0.3756 0
vt 0.8578 0.3804 0
vt 0.8578 0.3872 0
vt 0.8502 0.3831 0
vt 0.8532 0.392 0
vt 0.8467 0.3756 0
vt 0.8421 0.3804 0
vt 0.8467 0.392 0
vt 0.8421 0.3872 0
vt 0.7073 0.4307 0
vt 0.7529 0.392 0
vt 0.6902 0.5046 0
vt 0.738 0.464 0
vt 0.6814 0.6592 0
vt 0.7161 0.6296 0
vt 0.83 0.8081 0
vt 0.8292 0.8161 0
vt 0.6768 0.7058 0
vt 0.7994 0.4704 0
vt 0.7608 0.6343 0
vt 0.836 0.803 0
vt 0.8436 0.8038 0
vt 0.8383 0.5201 0
vt 0.7892 0.6706 0
vt 0.8485 0.81 0
vt 0.8485 0.4457 0
vt 0.8114 0.3982 0
vt 0.832 0.5839 0
vt 0.7846 0.7172 0
vt 0.8392 0.8123 0
vt 0.8341 0.8224 0
vt 0.8418 0.8232 0
vt 0.8478 0.8181 0
vt 0.4655 0.8513 0
vt 0.4072 0.8586 0
vt 0.4511 0.7725 0
vt 0.3899 0.7801 0
vt 0.3709 0.9069 0
vt 0.3699 0.6565 0
vt 0.4144 0.6509 0
vt 0.3519 0.8306 0
vt 0.5048 0.5726 0
vt 0.5109 0.5776 0
vt 0.4497 0.6798 0
vt 0.4971 0.5736 0
vt 0.3422 0.6934 0
vt 0.5118 0.8891 0
vt 0.4997 0.8121 0
vt 0.1457 0.9069 0
vt 0.1635 0.9678 0
vt 0.0982 0.8306 0
vt 0.1169 0.8943 0
vt 0.669 0.6671 0
vt 0.6731 0.7188 0
vt 0.6689 0.7289 0
vt 0.6731 0.783 0
vt 0.9141 0.5705 0
vt 0.9606 0.5349 0
vt 0.9066 0.7294 0
vt 0.9433 0.7183 0
vt 0.4551 0.7262 0
vt 0.5118 0.5856 0
vt 0.7052 0.7421 0
vt 0.172 0.5515 0
vt 0.1352 0.5966 0
vt 0.1543 0.4107 0
vt 0.1159 0.4586 0
vt 0.172 0.1812 0
vt 0.0772 0.6054 0
vt 0.0548 0.4672 0
vt 0.1439 0.2154 0
vt 0.0566 0.012 0
vt 0.0996 0.2223 0
vt 0.0515 0.0182 0
vt 0.0317 0.5726 0
vt 0.0068 0.4317 0
vt 0.0435 0.0194 0
vt 0.065 0.1979 0
vt 0.0463 0.0105 0
vt 0.0372 0.015 0
vt 0.0364 0.00749999 0
vt 0.0415 0.00129998 0
vt 0.0495 0 0
vt 0.0558 0.00440001 0
vt 0.1674 0.1397 0
vt 0.4064 0.1008 0
vt 0.4643 0.1108 0
vt 0.3796 0.2479 0
vt 0.3422 0.1992 0
vt 0.3705 0.0549 0
vt 0.4405 0.2578 0
vt 0.5104 0.0791 0
vt 0.47 0.4592 0
vt 0.4258 0.4513 0
vt 0.4892 0.2233 0
vt 0.3763 0.5712 0
vt 0.3984 0.4165 0
vt 0.3714 0.5649 0
vt 0.3844 0.5726 0
vt 0.505 0.4355 0
vt 0.4972 0.1644 0
vt 0.5104 0.3942 0
vt 0.1981 0.7449 0
vt 0.1958 0.8 0
vt 0.1981 0.5994 0
vt 0.1958 0.6585 0
vt 0.4003 0.0596 0
vt 0.4271 0.1042 0
vt 0.3423 0.2784 0
vt 0.3673 0.3174 0
vt 0 0.3726 0
vt 0.0605 0.1565 0
vt 0.4528 0.3752 0
vt 0.4788 0.4228 0
vt 0.3263 0.5574 0
vt 0.37 0.5712 0
vt 0.3907 0.5683 0
vt 0.3422 0.546 0
vt 0.3058 0.5907 0
vt 0.3247 0.4066 0
vt 0.2867 0.454 0
vt 0.2483 0.5994 0
vt 0.2262 0.4626 0
vt 0.3144 0.2132 0
vt 0.3422 0.1794 0
vt 0.2033 0.567 0
vt 0.2705 0.2201 0
vt 0.1787 0.4274 0
vt 0.223 0.018 0
vt 0.228 0.0118 0
vt 0.215 0.0192 0
vt 0.2364 0.196 0
vt 0.2178 0.0104 0
vt 0.2079 0.00739998 0
vt 0.213 0.00120002 0
vt 0.2088 0.0149 0
vt 0.221 0 0
vt 0.2272 0.00440001 0
vt 0.3377 0.1384 0
vt 0.172 0.3689 0
vt 0.2318 0.1549 0
vt 0.5739 0.0998 0
vt 0.6312 0.1097 0
vt 0.5474 0.2455 0
vt 0.6077 0.2554 0
vt 0.6768 0.0782 0
vt 0.6559 0.2212 0
vt 0.5932 0.447 0
vt 0.5104 0.1973 0
vt 0.5661 0.4126 0
vt 0.6369 0.4548 0
vt 0.6715 0.4314 0
vt 0.5443 0.5658 0
vt 0.5393 0.5596 0
vt 0.5522 0.5672 0
vt 0.5585 0.563 0
vt 0.5384 0.0543 0
vt 0.6954 0.8103 0
vt 0.679 0.8648 0
vt 0.6954 0.6671 0
vt 0.6785 0.7255 0
vt 0.2665 0.527 0
vt 0.2886 0.5814 0
vt 0.1201 0.6661 0
vt 0.1386 0.7244 0
vt 0.6637 0.1629 0
vt 0.6768 0.3905 0
vt 0.5714 0.3717 0
vt 0.5403 0.5521 0

# 163 vertex normals
vn 0.9297 -0.3683 -0.0031
vn 0.9723 -0.1996 -0.1214
vn 0.8969 0.4421 -0.0111
vn 0.5907 -0.8 -0.1052
vn 0.4533 -0.8913 -0.0103
vn 0.7868 -0.6172 -0.0023
vn 0.7979 0.5564 -0.2316
vn 0.9841 0.1774 0.0006
vn 0.7866 -0.0229 0.6171
vn 0.5446 -0.566 0.6189
vn 0.1681 -0.9857 0.0058
vn -0.0106 -0.7769 0.6295
vn 0.3612 0.9324 0.0078
vn 0.1845 0.976 -0.1161
vn -0.5316 0.8451 -0.0568
vn -0.3981 0.9172 0.0129
vn -0.9481 0.3165 0.0289
vn -0.8208 0.5712 0.0038
vn -0.1349 0.9908 0.0024
vn -0.9751 0.2212 -0.0128
vn 0.6016 0.7988 -0.0034
vn 0.5738 0.5327 0.6221
vn 0.0334 0.7732 0.6333
vn -0.5209 0.561 0.6434
vn -0.9091 -0.4164 0.0122
vn -0.8376 -0.5446 0.0429
vn -0.3545 -0.935 0.0058
vn -0.6107 -0.7918 0.0085
vn -0.9905 -0.1368 0.0107
vn -0.2008 -0.9796 0.0071
vn -0.7633 0.0198 0.6457
vn -0.5532 -0.5332 0.64
vn -0.9606 0.1485 -0.2348
vn -0.5887 0.7558 -0.2866
vn 0.1144 0.9561 -0.2699
vn 0.9659 -0.1537 -0.2081
vn 0.6119 -0.7909 -0.0059
vn -0.8394 -0.5274 -0.1311
vn -0.7174 -0.5035 -0.4815
vn -0.2847 -0.9562 0.0671
vn -0.2451 -0.9693 0.0168
vn -0.6004 0.1356 -0.7881
vn -0.5207 -0.5482 -0.6544
vn -0.1442 -0.938 -0.3152
vn -0.4217 -0.0118 -0.9066
vn -0.2643 0.68 -0.6839
vn -0.1287 0.509 -0.8511
vn 0.3088 0.9045 -0.294
vn -0.2168 0.5247 -0.8232
vn -0.2973 0.0801 -0.9514
vn 0.3235 0.9171 -0.2329
vn -0.2291 -0.1842 -0.9558
vn 0.0299 -0.5133 -0.8577
vn 0.6551 -0.5806 -0.4834
vn 0.4754 -0.8718 0.1177
vn 0.3221 0.8349 -0.4463
vn 0.8124 0.5231 -0.2577
vn 0.8771 0.4802 0.0058
vn 0.9689 -0.1846 0.1644
vn 0.4985 -0.7915 0.3536
vn 0.7635 -0.2146 0.6091
vn 0.9436 -0.0679 -0.3239
vn 0.8067 0.4999 -0.3151
vn 0.7184 0.4355 0.5423
vn -0.0138 0.0022 -0.9999
vn 0.563 -0.8082 -0.1727
vn -0.1062 -0.9214 -0.3739
vn 0.6143 -0.7241 -0.3137
vn -0.0516 -0.8376 -0.5438
vn 0.658 -0.6285 -0.4147
vn -0.0201 -0.7175 -0.6962
vn 0.3948 -0.3893 -0.8322
vn 0.6701 0.0276 -0.7417
vn 0.9984 -0.0255 0.0497
vn -0.6219 -0.5441 -0.5631
vn -0.5369 -0.465 -0.7039
vn -0.0377 -0.4976 -0.8665
vn -0.431 -0.3195 -0.8439
vn -0.9209 0.055 -0.3858
vn -0.8856 0.1193 -0.4488
vn -0.634 0.1119 -0.7652
vn -0.9763 -0.0367 -0.2133
vn -0.668 -0.636 -0.3862
vn -0.7011 0.7103 0.0619
vn -0.6136 0.7834 0.0983
vn 0.5355 0.5398 -0.6495
vn 0.058 0.7833 -0.6189
vn -0.4451 0.5987 -0.6658
vn 0.0193 0.925 0.3794
vn 0.7057 0.5835 0.4018
vn 0.0247 0.8475 0.5301
vn 0.6262 0.5353 0.5668
vn 0.9709 -0.162 0.1765
vn 0.7245 0.6169 0.3072
vn 0.0861 0.9341 0.3465
vn 0.9736 -0.1231 0.1923
vn -0.7261 0.6766 0.1224
vn 0.5623 0.6615 -0.4962
vn 0.591 0.0723 -0.8034
vn 0.5772 0.6871 -0.4412
vn 0.4671 0.0896 -0.8796
vn 0.4701 0.7884 -0.3968
vn 0.432 -0.4617 -0.7747
vn 0.2087 -0.43 -0.8784
vn 0.4246 0.1835 -0.8866
vn -0.1128 0.5026 -0.8571
vn 0.1644 -0.3171 -0.934
vn 0.0457 0.0982 -0.9941
vn 0.0473 -0.9173 -0.3953
vn -0.2331 -0.8296 -0.5073
vn -0.0215 -0.3038 -0.9525
vn -0.3086 -0.7268 -0.6135
vn -0.4665 0.0757 -0.8812
vn -0.3832 -0.6396 -0.6663
vn -0.836 -0.4924 -0.2421
vn -0.9987 -0.0169 -0.0469
vn -0.8864 0.4485 -0.1147
vn -0.5246 0.7127 -0.4656
vn 0.0351 0.9555 0.2927
vn -0.7154 -0.1338 0.6858
vn -0.4881 0.5371 0.6879
vn -0.6815 -0.1596 0.7142
vn -0.7039 -0.7036 0.0973
vn -0.5112 -0.8045 0.3024
vn -0.3069 0.4003 0.8635
vn 0.1008 0.9684 0.2278
vn -0.3763 0.5239 0.7641
vn -0.5826 -0.0318 0.8121
vn 0.2355 0.836 0.4956
vn -0.6995 -0.6303 0.3366
vn -0.906 0.119 -0.406
vn -0.4265 0.5164 -0.7426
vn -0.9514 0.0981 -0.2917
vn -0.4059 0.5196 -0.7518
vn 0.1858 0.6646 -0.7237
vn 0.2581 0.6069 -0.7517
vn -0.374 0.6735 -0.6376
vn -0.9701 0.1794 -0.1632
vn 0.7662 0.5289 -0.3648
vn 0.2982 0.6277 -0.7191
vn 0.8183 0.4022 -0.4106
vn -0.1946 0.6043 -0.7726
vn -0.6145 0.1953 -0.7643
vn 0.2848 0.5874 -0.7575
vn 0.7791 0.3444 -0.5238
vn 0.2616 0.1842 -0.9474
vn 0.7057 -0.0537 -0.7064
vn 0.4634 -0.5669 -0.681
vn 0.5785 0.3559 -0.7339
vn -0.0991 -0.6977 -0.7095
vn -0.5496 -0.3697 -0.7491
vn -0.8238 -0.5296 0.2019
vn 0.979 -0.1097 0.1715
vn 0.9663 -0.2412 -0.09
vn 0.4952 -0.4634 0.7348
vn -0.2496 -0.646 0.7214
vn 0.4904 -0.599 0.633
vn -0.2096 -0.7083 0.674
vn -0.8784 -0.4093 0.2466
vn -0.8049 -0.465 0.3685
vn 0.5571 -0.8142 0.1632
vn -0.2152 -0.9354 0.2806
vn 0.9593 0.0464 0.2786

# Mesh 'Cylinder' with 294 faces
g Cylinder
usemtl Material.001
f  1/1/1 2/2/2 3/3/3
f  4/4/4 2/2/2 1/1/1
f  5/5/5 4/4/4 1/1/1
f  5/5/5 1/1/1 6/6/6
f  2/2/2 7/7/7 3/3/3
f  1/1/1 3/3/3 8/8/8
f  6/6/6 1/1/1 8/8/8
f  6/6/6 8/8/8 9/9/9
f  10/10/10 6/6/6 9/9/9
f  11/11/11 5/5/5 6/6/6
f  11/11/11 6/6/6 10/10/10
f  12/12/12 11/11/11 10/10/10
f  3/13/3 7/14/7 13/15/13
f  7/14/7 14/16/14 13/15/13
f  14/16/14 15/17/15 16/18/16
f  13/15/13 14/16/14 16/18/16
f  16/18/16 15/17/15 17/19/17
f  16/18/16 17/19/17 18/20/18
f  19/21/19 16/18/16 18/20/18
f  13/15/13 16/18/16 19/21/19
f  15/17/15 20/22/20 17/19/17
f  21/23/21 13/15/13 19/21/19
f  3/13/3 13/15/13 21/23/21
f  8/24/8 3/13/3 21/23/21
f  8/24/8 21/23/21 22/25/22
f  21/23/21 19/21/19 23/26/23
f  22/25/22 21/23/21 23/26/23
f  9/27/9 8/24/8 22/25/22
f  19/21/19 18/20/18 24/28/24
f  23/26/23 19/21/19 24/28/24
f  17/29/17 20/30/20 25/31/25
f  20/30/20 26/32/26 25/31/25
f  25/31/25 26/32/26 27/33/27
f  25/31/25 27/33/27 28/34/28
f  29/35/29 25/31/25 28/34/28
f  17/29/17 25/31/25 29/35/29
f  26/32/26 30/36/30 27/33/27
f  18/37/18 17/29/17 29/35/29
f  18/37/18 29/35/29 31/38/31
f  29/35/29 28/34/28 32/39/32
f  31/38/31 29/35/29 32/39/32
f  24/40/24 18/37/18 31/38/31
f  20/41/20 15/42/15 33/43/33
f  15/42/15 34/44/34 33/43/33
f  15/42/15 14/45/14 34/44/34
f  14/45/14 35/46/35 34/44/34
f  27/47/27 30/48/30 5/49/5
f  27/47/27 5/49/5 11/50/11
f  28/51/28 27/47/27 11/50/11
f  30/48/30 4/52/4 5/49/5
f  28/51/28 11/50/11 12/53/12
f  32/54/32 28/51/28 12/53/12
f  32/55/32 12/56/12 10/57/10
f  31/58/31 32/55/32 10/57/10
f  24/59/24 31/58/31 10/57/10
f  23/60/23 24/59/24 10/57/10
f  22/61/22 23/60/23 10/57/10
f  10/57/10 9/62/9 22/61/22
f  2/63/2 4/64/4 36/65/36
f  4/64/4 37/66/37 36/65/36
f  26/67/26 20/68/20 38/69/38
f  20/68/20 33/70/33 38/69/38
f  38/71/38 33/72/33 39/73/39
f  38/71/38 39/73/39 40/74/40
f  41/75/41 38/71/38 40/74/40
f  33/72/33 42/76/42 39/73/39
f  39/73/39 42/76/42 43/77/43
f  39/73/39 43/77/43 44/78/44
f  40/74/40 39/73/39 44/78/44
f  42/76/42 45/79/45 43/77/43
f  42/76/42 46/80/46 45/79/45
f  46/80/46 47/81/47 45/79/45
f  34/82/34 46/80/46 42/76/42
f  35/83/35 48/84/48 46/80/46
f  34/82/34 35/83/35 46/80/46
f  33/72/33 34/82/34 42/76/42
f  47/81/47 49/85/49 50/86/50
f  45/79/45 47/81/47 50/86/50
f  48/84/48 51/87/51 47/81/47
f  46/80/46 48/84/48 47/81/47
f  47/81/47 51/87/51 49/85/49
f  45/79/45 50/86/50 52/88/52
f  43/77/43 45/79/45 52/88/52
f  43/77/43 52/88/52 53/89/53
f  44/78/44 43/77/43 53/89/53
f  44/78/44 53/89/53 54/90/54
f  55/91/55 44/78/44 54/90/54
f  51/87/51 56/92/56 49/85/49
f  57/93/57 58/94/58 48/84/48
f  35/83/35 57/93/57 48/84/48
f  36/95/36 59/96/59 58/94/58
f  57/93/57 36/95/36 58/94/58
f  36/97/36 37/98/37 59/99/59
f  37/98/37 60/100/60 59/99/59
f  4/64/4 30/101/30 37/66/37
f  30/101/30 41/102/41 37/66/37
f  30/103/30 26/104/26 41/105/41
f  26/104/26 38/106/38 41/105/41
f  7/107/7 2/63/2 57/108/57
f  2/63/2 36/65/36 57/108/57
f  14/45/14 7/107/7 35/46/35
f  7/107/7 57/108/57 35/46/35
f  59/109/59 60/110/60 61/111/61
f  60/110/60 55/112/55 61/111/61
f  61/111/61 55/112/55 62/113/62
f  61/111/61 62/113/62 63/114/63
f  64/115/64 61/111/61 63/114/63
f  60/110/60 40/116/40 55/112/55
f  40/116/40 44/117/44 55/112/55
f  64/115/64 63/114/63 56/118/56
f  51/119/51 64/115/64 56/118/56
f  55/112/55 54/120/54 62/113/62
f  37/121/37 41/122/41 60/110/60
f  41/122/41 40/116/40 60/110/60
f  58/123/58 59/109/59 64/115/64
f  59/109/59 61/111/61 64/115/64
f  48/124/48 58/125/58 51/126/51
f  58/125/58 64/127/64 51/126/51
f  49/128/49 56/129/56 63/130/63
f  65/131/65 49/128/49 63/130/63
f  63/130/63 62/132/62 65/131/65
f  49/128/49 65/131/65 50/133/50
f  65/131/65 52/134/52 50/133/50
f  52/134/52 65/131/65 62/132/62
f  62/132/62 54/135/54 52/134/52
f  54/135/54 53/136/53 52/134/52
f  66/137/66 67/138/67 68/139/68
f  67/138/67 69/140/69 68/139/68
f  68/139/68 69/140/69 70/141/70
f  69/140/69 71/142/71 70/141/70
f  70/141/70 71/142/71 72/143/72
f  70/141/70 72/143/72 73/144/73
f  74/145/74 70/141/70 73/144/73
f  75/146/75 76/147/76 71/142/71
f  69/140/69 75/146/75 71/142/71
f  71/142/71 77/148/77 72/143/72
f  71/142/71 76/147/76 77/148/77
f  76/147/76 78/149/78 77/148/77
f  79/150/79 80/151/80 76/147/76
f  75/146/75 79/150/79 76/147/76
f  80/151/80 81/152/81 78/149/78
f  76/147/76 80/151/80 78/149/78
f  82/153/82 79/150/79 75/146/75
f  83/154/83 82/153/82 75/146/75
f  84/155/84 85/156/85 80/151/80
f  79/150/79 84/155/84 80/151/80
f  86/157/65 72/143/72 77/148/77
f  87/158/86 73/144/73 72/143/72
f  88/159/87 87/158/86 72/143/72
f  72/143/72 86/157/65 88/159/87
f  78/149/78 86/157/65 77/148/77
f  86/157/65 78/149/78 89/160/88
f  89/160/88 88/159/87 86/157/65
f  78/149/78 81/152/81 89/160/88
f  83/154/83 75/146/75 69/140/69
f  67/138/67 83/154/83 69/140/69
f  90/161/89 91/162/90 92/163/91
f  91/162/90 93/164/92 92/163/91
f  91/162/90 94/165/93 93/164/92
f  93/164/92 95/166/94 96/167/95
f  92/163/91 93/164/92 96/167/95
f  94/165/93 97/168/96 93/164/92
f  93/164/92 97/168/96 95/166/94
f  96/167/95 95/166/94 88/169/87
f  96/167/95 88/169/87 89/170/88
f  85/171/85 96/167/95 89/170/88
f  95/166/94 87/172/86 88/169/87
f  97/168/96 74/173/74 95/166/94
f  98/174/97 90/161/89 84/175/84
f  90/161/89 92/163/91 84/175/84
f  94/176/93 66/177/66 97/178/96
f  66/177/66 68/179/68 97/178/96
f  82/180/82 98/181/97 79/182/79
f  98/181/97 84/183/84 79/182/79
f  84/175/84 92/163/91 85/171/85
f  92/163/91 96/167/95 85/171/85
f  97/184/96 68/185/68 74/186/74
f  68/185/68 70/187/70 74/186/74
f  80/188/80 85/171/85 81/189/81
f  85/171/85 89/170/88 81/189/81
f  95/190/94 74/145/74 87/158/86
f  74/145/74 73/144/73 87/158/86
f  99/191/98 100/192/99 101/193/100
f  100/192/99 102/194/101 101/193/100
f  101/193/100 102/194/101 103/195/102
f  100/192/99 104/196/103 102/194/101
f  104/196/103 105/197/104 102/194/101
f  102/194/101 106/198/105 103/195/102
f  102/194/101 105/197/104 106/198/105
f  103/195/102 106/198/105 107/199/106
f  105/197/104 108/200/107 106/198/105
f  106/198/105 109/201/108 107/199/106
f  106/198/105 108/200/107 109/201/108
f  110/202/109 111/203/110 105/197/104
f  104/196/103 110/202/109 105/197/104
f  105/197/104 111/203/110 108/200/107
f  108/200/107 112/204/111 109/201/108
f  111/203/110 113/205/112 108/200/107
f  108/200/107 113/205/112 112/204/111
f  114/206/113 107/199/106 109/201/108
f  112/204/111 114/206/113 109/201/108
f  112/204/111 115/207/114 116/208/115
f  114/206/113 112/204/111 116/208/115
f  113/205/112 115/207/114 112/204/111
f  116/208/115 117/209/116 114/206/113
f  118/210/117 119/211/118 107/199/106
f  117/209/116 118/210/117 107/199/106
f  107/199/106 114/206/113 117/209/116
f  103/195/102 107/199/106 119/211/118
f  120/212/119 103/195/102 119/211/118
f  121/213/120 122/214/121 123/215/122
f  121/213/120 123/215/122 124/216/123
f  125/217/124 121/213/120 124/216/123
f  122/214/121 126/218/125 123/215/122
f  122/214/121 127/219/126 126/218/125
f  126/218/125 128/220/127 129/221/128
f  123/215/122 126/218/125 129/221/128
f  127/219/126 130/222/129 126/218/125
f  126/218/125 130/222/129 128/220/127
f  129/221/128 128/220/127 117/223/116
f  123/215/122 129/221/128 131/224/130
f  129/221/128 117/223/116 116/225/115
f  131/224/130 129/221/128 116/225/115
f  128/220/127 118/226/117 117/223/116
f  130/222/129 120/227/119 128/220/127
f  130/222/129 101/228/100 120/227/119
f  101/228/100 103/229/102 120/227/119
f  124/216/123 123/215/122 131/224/130
f  127/230/126 99/231/98 130/232/129
f  99/231/98 101/233/100 130/232/129
f  110/234/109 125/235/124 111/236/110
f  125/235/124 124/237/123 111/236/110
f  111/203/110 124/238/123 113/205/112
f  124/238/123 131/239/130 113/205/112
f  113/240/112 131/241/130 115/242/114
f  131/241/130 116/243/115 115/242/114
f  128/220/127 120/227/119 118/226/117
f  120/227/119 119/244/118 118/226/117
f  132/245/131 133/246/132 134/247/133
f  133/246/132 135/248/134 134/247/133
f  133/246/132 136/249/135 135/248/134
f  136/249/135 137/250/136 135/248/134
f  135/248/134 138/251/137 139/252/138
f  134/247/133 135/248/134 139/252/138
f  135/248/134 137/250/136 138/251/137
f  136/249/135 140/253/139 137/250/136
f  137/250/136 141/254/140 138/251/137
f  140/253/139 142/255/141 137/250/136
f  137/250/136 142/255/141 141/254/140
f  138/251/137 143/256/142 144/257/143
f  139/252/138 138/251/137 144/257/143
f  138/251/137 141/254/140 143/256/142
f  141/254/140 145/258/144 143/256/142
f  142/255/141 146/259/145 141/254/140
f  147/260/146 144/257/143 143/256/142
f  145/258/144 147/260/146 143/256/142
f  147/260/146 145/258/144 148/261/147
f  148/261/147 149/262/148 147/260/146
f  144/257/143 147/260/146 149/262/148
f  145/258/144 150/263/149 148/261/147
f  151/264/150 152/265/151 144/257/143
f  149/262/148 151/264/150 144/257/143
f  139/252/138 144/257/143 152/265/151
f  153/266/152 139/252/138 152/265/151
f  154/267/153 155/268/154 146/259/145
f  142/255/141 154/267/153 146/259/145
f  146/259/145 150/263/149 145/258/144
f  141/254/140 146/259/145 145/258/144
f  156/269/155 157/270/156 158/271/157
f  157/270/156 159/272/158 158/271/157
f  157/270/156 160/273/159 159/272/158
f  160/273/159 161/274/160 159/272/158
f  158/271/157 159/272/158 162/275/161
f  156/269/155 158/271/157 154/276/153
f  158/271/157 162/275/161 155/277/154
f  154/276/153 158/271/157 155/277/154
f  159/272/158 163/278/162 162/275/161
f  161/274/160 153/279/152 163/278/162
f  159/272/158 161/274/160 163/278/162
f  162/275/161 163/278/162 149/280/148
f  162/275/161 149/280/148 148/281/147
f  155/277/154 162/275/161 148/281/147
f  163/278/162 151/282/150 149/280/148
f  163/278/162 153/279/152 151/282/150
f  153/279/152 152/283/151 151/282/150
f  164/284/163 156/269/155 154/276/153
f  160/285/159 132/286/131 161/287/160
f  132/286/131 134/288/133 161/287/160
f  140/289/139 164/290/163 142/291/141
f  164/290/163 154/292/153 142/291/141
f  161/274/160 134/293/133 153/279/152
f  134/293/133 139/294/138 153/279/152
f  146/295/145 155/277/154 150/296/149
f  155/277/154 148/281/147 150/296/149

