<?xml version="1.0" standalone="no"?>
<!DOCTYPE svg PUBLIC "-//W3C//DTD SVG 20010904//EN"
 "http://www.w3.org/TR/2001/REC-SVG-20010904/DTD/svg10.dtd">
<svg version="1.0" xmlns="http://www.w3.org/2000/svg"
 width="500.000000pt" height="500.000000pt" viewBox="0 0 500.000000 500.000000"
 preserveAspectRatio="xMidYMid meet">
<metadata>
Created by potrace 1.11, written by Peter Selinger 2001-2013
</metadata>
<g transform="translate(0.000000,500.000000) scale(0.100000,-0.100000)"
fill="#000000" stroke="none">
<path d="M385 4892 c-5 -9 -8 -30 -9 -47 -1 -28 -3 -30 -38 -29 -21 1 -38 -3
-38 -8 0 -5 -6 -6 -12 -2 -7 4 -10 4 -6 -1 4 -4 2 -15 -5 -24 -11 -14 -10 -14
5 -2 15 11 19 11 24 -2 3 -9 3 -21 -1 -28 -6 -8 -2 -8 13 0 15 8 23 8 28 -1 4
-7 3 -8 -4 -4 -7 4 -12 2 -12 -3 0 -6 5 -12 10 -12 6 -1 13 -3 18 -4 4 -2 18
-6 30 -10 18 -6 20 -10 10 -16 -10 -7 -11 -9 0 -9 7 0 10 -4 7 -10 -3 -5 2
-10 12 -11 14 0 15 -2 3 -6 -8 -3 -23 -15 -33 -27 -13 -16 -16 -17 -11 -3 3 9
1 17 -5 17 -6 0 -11 -6 -11 -12 0 -9 -3 -8 -9 2 -6 8 -7 18 -4 23 3 5 -3 6
-14 3 -15 -5 -19 -1 -21 21 -1 15 -9 31 -17 36 -9 4 -13 12 -10 17 3 5 1 11
-5 15 -5 3 -10 2 -10 -3 0 -5 -10 -7 -23 -5 -17 3 -23 0 -24 -16 -1 -14 3 -18
13 -14 9 3 3 -7 -11 -23 -15 -16 -32 -28 -38 -26 -5 2 -17 0 -25 -3 -12 -4
-12 -8 -1 -22 10 -12 10 -14 2 -9 -7 4 -13 3 -13 -3 0 -5 9 -13 20 -16 15 -5
20 -15 20 -38 0 -26 -2 -29 -11 -17 -9 13 -10 13 -6 -2 3 -9 3 -19 -1 -22 -3
-4 -7 -14 -8 -22 -1 -9 0 -13 3 -10 4 3 12 1 20 -5 7 -6 13 -7 13 -2 0 5 7 10
15 10 8 0 12 -4 9 -8 -2 -4 0 -10 5 -14 12 -7 33 29 23 40 -4 5 -1 5 6 1 7 -4
10 -11 7 -16 -3 -5 0 -12 6 -16 8 -4 9 -3 5 4 -4 7 -2 12 3 12 6 0 10 5 8 12
-1 7 15 12 39 14 35 3 43 0 47 -16 4 -15 0 -20 -16 -20 -12 0 -29 -5 -37 -11
-12 -8 -10 -9 9 -4 16 5 21 4 17 -4 -4 -6 -18 -11 -32 -11 -18 0 -23 4 -18 13
5 7 1 7 -10 -2 -14 -12 -19 -12 -26 -2 -5 9 -9 10 -14 2 -4 -6 -12 -9 -17 -6
-5 4 -9 1 -9 -4 0 -6 -5 -11 -11 -11 -8 0 -7 6 2 18 11 14 11 15 -1 4 -8 -7
-15 -24 -16 -38 -1 -20 5 -28 27 -36 23 -8 28 -15 26 -38 -1 -15 -5 -26 -8
-24 -9 5 -19 -22 -12 -30 4 -3 15 -6 25 -6 11 0 17 -4 13 -10 -3 -5 6 -3 20 4
38 20 68 9 62 -21 -3 -17 -1 -21 6 -14 8 8 16 6 27 -4 19 -17 18 -18 24 65 2
25 4 53 5 63 0 9 8 17 16 17 8 0 14 5 13 12 -2 6 6 14 16 16 14 3 17 0 13 -12
-4 -10 3 -24 16 -37 14 -13 16 -18 6 -14 -17 6 -34 -19 -24 -35 3 -4 -5 -6
-17 -3 -19 4 -20 3 -8 -6 11 -8 12 -11 2 -11 -7 0 -10 -4 -7 -10 3 -5 0 -10
-7 -10 -9 0 -10 -3 -2 -8 6 -4 10 -15 8 -24 -1 -11 4 -18 14 -19 10 0 25 -2
35 -4 15 -3 21 5 19 26 -1 3 6 6 14 6 7 0 14 -8 14 -17 0 -10 8 -24 18 -31 16
-13 16 -13 2 6 -11 15 -7 14 13 -4 25 -22 32 -21 28 3 -1 5 4 13 11 17 10 7
10 9 -1 9 -11 0 -10 4 4 13 10 8 29 13 42 11 19 -2 23 1 19 13 -5 13 -4 14 8
4 12 -10 14 -7 12 18 -1 17 2 33 6 35 5 3 3 3 -4 2 -7 -2 -12 -9 -10 -16 3
-11 0 -11 -13 0 -14 12 -14 15 2 33 18 19 18 20 -5 6 -19 -12 -24 -12 -31 0
-5 8 -16 11 -26 7 -15 -5 -16 -4 -6 8 10 12 8 14 -11 12 -20 -2 -23 2 -24 31
-1 29 2 34 17 30 11 -3 19 -1 19 4 0 6 7 6 19 0 10 -6 21 -7 25 -4 6 6 11 -31
7 -51 -1 -5 5 -3 14 4 13 11 14 10 9 -5 -5 -13 -4 -16 4 -11 8 4 12 0 12 -11
0 -20 35 -47 50 -38 5 3 9 22 8 43 -1 53 0 56 16 43 9 -8 16 -8 20 -2 4 6 13
8 20 5 8 -3 17 0 22 7 5 8 3 10 -6 4 -10 -6 -12 -3 -8 13 4 12 2 25 -3 28 -5
3 -6 11 -2 17 4 8 1 7 -9 -1 -15 -12 -17 -10 -16 17 1 16 6 29 11 28 6 -1 12
11 13 28 2 22 1 26 -6 15 -7 -10 -10 -11 -10 -2 0 22 -2 27 -11 38 -5 6 -7 19
-3 27 3 9 -4 26 -17 39 -12 13 -18 17 -14 9 5 -9 4 -12 -2 -8 -17 11 -23 47
-8 47 9 0 11 8 7 22 -3 14 -1 19 6 14 8 -5 10 -1 5 9 -5 13 -7 14 -14 3 -5 -8
-9 -9 -9 -2 0 14 -44 24 -61 14 -8 -6 -6 -9 7 -13 10 -2 3 -4 -16 -4 -19 0
-29 2 -23 4 10 4 9 8 -2 20 -8 8 -13 19 -10 24 4 5 -1 9 -9 9 -9 0 -21 -9 -28
-20 -17 -27 -27 -25 -21 3 3 17 2 19 -6 6 -8 -12 -8 -54 -1 -54 1 0 4 -17 5
-37 1 -21 -1 -35 -6 -32 -5 3 -6 -2 -3 -10 6 -16 -5 -21 -35 -16 -12 1 -13 -1
-2 -13 8 -11 9 -17 1 -22 -6 -4 -9 -3 -8 2 1 4 -2 17 -8 28 -6 11 -9 26 -8 33
1 6 2 17 3 22 0 6 8 10 16 10 14 0 17 12 18 82 0 15 4 25 8 23 4 -3 13 3 20
13 12 15 12 16 -1 5 -9 -7 -21 -8 -28 -4 -15 9 -64 2 -58 -8 3 -4 -4 -12 -14
-19 -16 -10 -18 -9 -15 8 3 14 -4 20 -27 25 -20 5 -26 10 -18 15 8 5 8 10 2
14 -5 3 -13 -2 -17 -12z m203 -157 c-3 -3 -9 2 -12 12 -6 14 -5 15 5 6 7 -7
10 -15 7 -18z m-343 -75 c3 -6 -1 -7 -9 -4 -18 7 -21 14 -7 14 6 0 13 -4 16
-10z m512 -7 c-4 -3 1 -12 11 -20 13 -10 14 -13 2 -11 -25 5 -36 38 -13 38 4
0 3 -3 0 -7z m-34 -50 c-9 -7 -20 -10 -24 -7 -5 3 -9 0 -9 -6 0 -7 -7 -9 -15
-6 -9 3 -18 0 -21 -8 -10 -26 -32 -13 -31 20 1 30 3 32 41 32 22 1 46 -4 53
-10 11 -8 12 -7 7 8 -5 16 -4 16 5 4 8 -11 7 -18 -6 -27z m-110 -7 c3 -8 -2
-20 -11 -27 -14 -11 -15 -11 -5 0 6 7 9 20 6 27 -3 8 -3 14 0 14 3 0 7 -6 10
-14z m157 10 c0 -3 -4 -8 -10 -11 -5 -3 -10 -1 -10 4 0 6 5 11 10 11 6 0 10
-2 10 -4z m-80 -42 c0 -2 -7 -4 -15 -4 -8 0 -15 4 -15 10 0 5 7 7 15 4 8 -4
15 -8 15 -10z m-500 -40 c0 -8 -5 -12 -10 -9 -6 4 -8 11 -5 16 9 14 15 11 15
-7z m300 -114 c0 -5 -2 -10 -4 -10 -3 0 -8 5 -11 10 -3 6 -1 10 4 10 6 0 11
-4 11 -10z m130 -109 c0 -6 -4 -12 -8 -15 -5 -3 -9 1 -9 9 0 8 4 15 9 15 4 0
8 -4 8 -9z"/>
<path d="M2175 4901 c-3 -5 -2 -12 3 -15 5 -3 9 1 9 9 0 17 -3 19 -12 6z"/>
<path d="M2202 4905 c15 -16 -13 -35 -33 -24 -12 6 -19 6 -19 0 0 -5 -11 -8
-25 -6 -14 1 -25 -1 -25 -5 0 -5 -10 -6 -21 -3 -14 4 -26 0 -35 -11 -8 -12
-14 -14 -19 -6 -5 8 -10 8 -20 0 -8 -7 -20 -8 -27 -4 -9 6 -9 3 1 -9 12 -15
12 -17 -4 -11 -13 5 -16 4 -11 -4 4 -7 3 -12 -3 -12 -5 0 -12 6 -14 13 -4 10
-6 10 -6 0 -1 -7 -7 -13 -15 -13 -8 0 -16 -7 -20 -15 -3 -8 -11 -12 -19 -9 -8
3 -29 -10 -48 -28 -19 -17 -41 -32 -49 -32 -8 -1 -14 -6 -13 -13 2 -8 -4 -10
-14 -6 -13 5 -15 2 -10 -11 4 -11 2 -16 -6 -14 -7 2 -14 -1 -16 -7 -1 -5 -7
-16 -13 -22 -6 -7 -7 -13 -2 -13 5 0 1 -5 -8 -11 -10 -5 -18 -18 -18 -27 1
-15 2 -15 15 2 8 11 15 15 15 10 0 -6 -9 -20 -19 -31 -11 -12 -17 -23 -15 -26
4 -4 8 -262 5 -329 -1 -14 -8 -17 -31 -14 -22 2 -28 0 -21 -8 9 -11 -8 -15
-76 -19 -7 0 -14 -6 -17 -14 -4 -10 -1 -11 14 -3 10 5 22 10 27 10 4 -1 -2 -7
-15 -14 -13 -7 -43 -12 -67 -12 -34 1 -41 -2 -33 -11 10 -13 -1 -17 -39 -16
-7 1 -13 -3 -13 -9 0 -5 -4 -6 -10 -3 -5 3 -7 0 -4 -9 4 -11 -2 -14 -25 -12
-23 2 -28 -1 -20 -10 7 -9 2 -14 -21 -19 -17 -4 -30 -13 -30 -21 0 -9 -3 -13
-8 -10 -4 2 -18 -2 -32 -10 l-25 -15 24 7 c16 4 21 3 17 -5 -4 -6 -16 -11 -26
-11 -13 0 -17 -5 -14 -15 4 -9 0 -15 -8 -15 -21 0 -49 -74 -48 -128 0 -16 -4
-21 -13 -16 -8 6 -8 3 1 -9 8 -9 11 -21 7 -27 -4 -7 0 -10 11 -8 14 2 18 -4
20 -27 2 -47 4 -51 13 -37 6 10 10 10 21 -3 10 -12 10 -15 0 -15 -7 0 -1 -9
13 -20 14 -11 31 -20 37 -20 7 0 10 -7 6 -16 -3 -8 -2 -13 3 -9 5 3 11 2 14
-2 2 -5 2 -1 0 7 -1 8 9 2 23 -15 14 -16 23 -23 19 -15 -3 8 1 6 9 -4 9 -12
16 -14 16 -7 0 9 5 8 16 -3 8 -9 19 -14 24 -11 5 3 12 0 16 -6 4 -8 3 -9 -4
-5 -7 4 -12 3 -12 -3 0 -5 5 -13 10 -16 6 -3 10 -11 10 -16 0 -6 -4 -7 -10 -4
-7 4 -7 -2 0 -19 6 -16 6 -27 -1 -31 -5 -4 -7 -11 -4 -16 4 -5 1 -9 -5 -9 -6
0 -8 -5 -4 -12 5 -8 2 -9 -10 -5 -10 4 -15 3 -11 -3 3 -6 14 -10 23 -11 11 0
12 -2 4 -6 -6 -2 -9 -10 -5 -16 5 -9 3 -9 -8 0 -12 9 -14 5 -14 -30 1 -23 5
-48 9 -56 6 -9 5 -12 -1 -8 -6 4 -9 -11 -8 -41 1 -26 -2 -54 -6 -63 -5 -9 -5
-19 -2 -23 11 -11 10 -46 -1 -46 -7 0 -7 -3 -1 -8 6 -4 11 -36 13 -71 2 -39 8
-69 17 -78 19 -19 19 -23 -2 -40 -13 -9 -14 -13 -3 -11 8 2 15 -3 16 -9 1 -7
3 -16 4 -20 6 -20 4 -39 -5 -52 -7 -11 -7 -13 3 -7 7 4 12 1 12 -8 0 -9 5 -16
10 -16 6 0 10 -12 10 -26 0 -14 4 -23 10 -19 6 3 10 -3 10 -14 0 -12 10 -31
22 -43 16 -16 17 -20 5 -15 -9 3 -17 2 -17 -3 0 -6 7 -10 15 -10 8 0 15 -9 15
-20 0 -11 7 -20 16 -20 8 0 13 -3 10 -8 -2 -4 2 -18 10 -32 l15 -25 -6 25 c-5
25 -5 25 6 3 7 -13 17 -23 23 -23 7 0 7 -3 -1 -8 -8 -5 -4 -16 13 -35 13 -16
24 -23 24 -16 0 7 3 9 7 5 8 -7 9 -11 12 -37 1 -8 6 -8 16 1 13 10 15 9 15 -9
0 -11 5 -21 11 -21 7 0 18 -8 26 -17 10 -12 12 -13 8 -3 -4 10 -2 9 8 -2 8
-10 19 -18 25 -18 6 0 14 -5 18 -12 5 -7 3 -8 -6 -3 -9 5 -11 4 -6 -4 4 -7 13
-10 19 -8 7 2 17 -3 23 -11 6 -8 23 -15 37 -15 15 0 30 -4 34 -10 4 -6 1 -7
-7 -2 -9 5 -11 4 -6 -4 6 -9 11 -9 22 0 9 7 14 8 14 1 0 -6 -5 -14 -11 -17 -6
-5 -5 -11 6 -18 16 -12 16 -12 -82 -21 -12 -1 -26 -6 -30 -10 -4 -5 -2 -6 5
-2 6 4 12 2 12 -4 0 -5 -12 -10 -27 -10 -46 0 -62 -3 -57 -12 3 -5 11 -5 17
-2 7 4 9 3 4 -1 -4 -5 -18 -11 -30 -13 -47 -8 -52 -10 -50 -19 1 -6 -8 -9 -20
-9 -25 2 -49 -12 -42 -24 3 -5 1 -11 -4 -14 -5 -4 -13 -1 -17 5 -5 8 -3 9 6 4
9 -5 11 -4 6 4 -5 8 -16 4 -38 -14 -16 -14 -36 -25 -45 -25 -8 0 -13 -6 -10
-13 3 -8 -1 -14 -8 -14 -7 0 -11 7 -8 16 2 9 -2 6 -9 -7 -8 -12 -17 -20 -20
-16 -4 3 -11 -3 -17 -15 -11 -19 -51 -26 -51 -8 0 4 -4 6 -9 3 -5 -3 -11 1
-15 9 -3 9 -12 12 -22 8 -13 -5 -15 -3 -9 7 6 9 4 11 -4 6 -7 -5 -19 0 -27 10
-9 11 -13 13 -9 7 4 -9 1 -11 -10 -7 -9 4 -14 13 -10 22 4 12 3 13 -10 2 -9
-7 -18 -10 -22 -6 -3 3 -1 6 5 6 7 0 12 5 12 11 0 6 -7 9 -15 5 -9 -3 -19 3
-26 15 -6 11 -17 18 -24 15 -9 -3 -12 1 -10 15 2 12 -2 19 -11 19 -8 0 -14 4
-14 9 0 5 -16 15 -35 21 -22 7 -33 16 -28 23 4 7 -2 5 -12 -3 -11 -9 -16 -10
-11 -2 4 6 3 12 -2 12 -5 0 -14 10 -21 22 -9 19 -11 19 -6 3 4 -17 3 -18 -8
-5 -6 8 -18 16 -26 18 -7 1 -20 9 -27 17 -8 8 -21 12 -29 9 -8 -4 -15 -1 -15
5 0 6 -6 8 -13 5 -8 -3 -20 2 -27 11 -7 8 -21 15 -31 15 -10 0 -21 4 -24 10
-4 6 1 7 12 3 10 -3 15 -3 12 1 -9 10 -50 16 -44 6 3 -5 0 -12 -6 -16 -7 -4
-9 -3 -6 3 9 15 -19 37 -34 27 -8 -5 -10 -2 -6 8 4 11 0 15 -11 13 -9 -1 -28
7 -42 19 -16 14 -20 15 -11 4 10 -14 10 -18 1 -18 -6 0 -14 9 -17 19 -3 13
-12 18 -25 16 -14 -3 -18 0 -15 9 3 8 -3 16 -15 19 -13 4 -19 11 -15 21 3 8 1
18 -5 22 -7 5 -8 2 -3 -6 6 -9 4 -11 -4 -6 -9 6 -8 13 6 29 9 12 11 16 3 10
-18 -17 -27 -16 -27 2 0 8 5 11 11 8 6 -3 4 2 -5 12 -13 13 -15 25 -9 45 7 24
6 28 -8 22 -15 -5 -15 -4 -3 11 8 10 11 21 7 24 -4 4 -11 2 -15 -5 -5 -8 -8
-1 -8 17 0 28 2 29 15 13 9 -11 8 -7 -2 11 -9 15 -14 27 -11 27 3 0 1 10 -6
21 -8 15 -8 19 0 15 19 -12 12 2 -11 25 -20 19 -20 21 -4 15 17 -6 17 -5 5 10
-14 17 -15 23 -18 80 -1 22 -3 24 -16 14 -12 -10 -13 -8 -10 10 3 16 -2 24
-15 27 -11 3 -21 13 -21 22 -1 9 -2 33 -3 53 -1 24 -9 44 -21 54 -11 8 -13 12
-5 8 12 -7 13 -5 3 8 -7 8 -11 17 -8 19 2 3 -4 5 -15 5 -14 0 -16 -3 -8 -13 7
-9 7 -13 -1 -13 -6 0 -9 -13 -7 -30 2 -17 -3 -35 -10 -41 -8 -6 -11 -15 -8
-21 3 -5 0 -15 -6 -23 -10 -12 -10 -15 0 -15 9 0 9 -4 2 -12 -5 -7 -9 -55 -9
-106 2 -66 -1 -91 -10 -88 -7 3 -6 -4 3 -22 17 -33 18 -46 2 -36 -7 5 -8 3 -3
-6 7 -11 11 -48 17 -172 1 -15 5 -25 9 -22 13 7 18 -11 8 -26 -6 -11 -9 -12
-9 -2 0 7 -5 10 -10 7 -6 -4 -7 -12 -3 -18 4 -8 1 -7 -9 1 -17 14 -90 14 -82
0 3 -5 10 -5 16 -2 6 4 8 2 4 -4 -3 -6 -15 -9 -26 -7 -11 2 -20 -2 -20 -8 0
-7 -4 -6 -10 3 -6 9 -10 10 -10 3 0 -7 -9 -10 -21 -8 -18 4 -19 2 -7 -12 11
-15 10 -16 -9 -11 -13 4 -25 2 -28 -2 -3 -5 -14 -7 -25 -5 -13 2 -20 -2 -20
-11 0 -12 -11 -18 -31 -16 -3 1 -6 -5 -6 -13 0 -8 3 -14 6 -13 21 2 31 -4 25
-14 -5 -10 -4 -10 6 -1 11 10 16 9 27 -5 8 -9 12 -12 9 -6 -3 7 1 14 8 17 9 4
17 -1 19 -11 4 -14 5 -14 6 2 1 18 3 17 21 -4 11 -13 20 -20 20 -16 0 4 10 2
21 -5 17 -8 20 -8 14 1 -5 8 -3 11 6 8 8 -3 13 -12 11 -19 -2 -11 1 -11 10 1
7 8 24 14 37 12 19 -3 21 -6 10 -13 -11 -7 -9 -9 9 -9 12 0 22 -5 22 -11 0 -8
4 -8 14 0 11 9 16 9 22 0 5 -8 3 -9 -7 -4 -11 7 -11 6 1 -9 13 -17 14 -17 21
1 7 17 8 17 8 -2 1 -17 3 -17 11 -5 6 10 10 11 10 3 0 -7 9 -13 21 -13 13 0
18 -4 13 -12 -5 -7 -3 -8 7 -2 22 14 36 13 36 -2 0 -10 -4 -11 -14 -3 -9 8
-13 8 -13 0 0 -11 12 -15 44 -11 13 1 16 -2 10 -12 -6 -10 -4 -10 9 1 15 12
17 12 12 -1 -4 -9 0 -15 9 -15 8 0 13 3 11 7 -2 4 2 7 10 7 8 0 12 -4 9 -9 -5
-7 55 -14 80 -9 5 1 4 -4 -2 -11 -8 -11 -7 -14 6 -15 53 -4 82 -10 89 -18 4
-4 2 -5 -4 -1 -7 4 -13 2 -13 -3 0 -15 13 -14 29 2 11 10 13 10 7 0 -4 -8 -2
-13 5 -13 7 0 23 -10 36 -21 19 -19 25 -20 38 -9 13 11 16 11 13 0 -2 -7 3
-15 11 -18 9 -3 11 0 6 9 -5 8 -4 11 1 6 9 -8 10 -12 13 -39 1 -10 3 -10 10 1
6 9 11 10 15 2 4 -6 13 -8 19 -4 7 4 6 -1 -2 -11 -8 -9 -10 -16 -5 -15 5 1 20
1 33 0 20 -1 22 -3 11 -17 -8 -8 -9 -14 -4 -13 26 5 44 -3 44 -18 0 -14 2 -15
9 -5 7 11 9 11 14 -1 4 -10 14 -14 29 -10 16 3 19 2 10 -5 -11 -7 -11 -10 2
-15 9 -4 13 -13 10 -22 -3 -8 -1 -15 6 -15 6 0 8 5 5 10 -12 20 6 9 32 -17 14
-16 20 -20 13 -10 -7 9 -8 17 -3 17 5 0 15 -12 22 -27 12 -26 3 -42 -21 -43
-5 0 -8 -8 -8 -17 0 -15 -2 -16 -10 -3 -8 13 -10 12 -10 -3 0 -12 -4 -16 -12
-11 -8 5 -7 0 2 -11 9 -11 10 -16 3 -11 -21 12 -36 -3 -21 -22 10 -12 10 -14
1 -8 -7 4 -13 3 -13 -3 0 -6 -7 -8 -15 -5 -8 4 -15 2 -15 -4 0 -6 6 -13 13
-15 6 -3 1 -6 -13 -7 -14 -1 -19 -4 -12 -7 6 -2 12 -9 12 -15 0 -6 -6 -8 -14
-5 -10 4 -16 -2 -18 -16 -2 -12 -10 -21 -17 -19 -8 2 -11 -3 -8 -12 4 -9 -1
-20 -11 -25 -15 -9 -15 -10 3 -11 16 0 17 -2 5 -9 -8 -6 -18 -7 -24 -4 -5 4
-7 -1 -3 -10 3 -10 2 -17 -3 -17 -5 0 -7 -6 -4 -14 3 -8 0 -17 -7 -22 -8 -4
-10 -3 -5 4 4 7 2 12 -3 12 -6 0 -11 -16 -11 -35 0 -20 -6 -37 -15 -43 -9 -5
-17 -26 -19 -53 -2 -24 -5 -46 -6 -49 -1 -3 -2 -8 -1 -12 0 -4 -6 -5 -13 -2
-15 6 -17 -19 -3 -32 4 -4 2 -12 -3 -19 -5 -6 -11 -28 -12 -47 -2 -20 -6 -34
-9 -32 -4 2 -10 -3 -13 -12 -4 -10 -2 -13 6 -8 7 5 8 3 2 -7 -4 -8 -9 -37 -10
-66 -1 -29 -4 -59 -7 -67 -4 -9 -1 -16 6 -17 7 0 3 -4 -8 -9 -16 -7 -17 -9 -3
-9 17 -1 18 -27 2 -53 -4 -7 -3 -8 4 -4 7 4 12 2 12 -3 0 -6 -5 -11 -10 -11
-7 0 -7 -6 0 -20 8 -15 8 -20 -2 -20 -8 0 -9 -3 -3 -8 6 -4 10 -32 10 -62 0
-30 4 -58 9 -62 6 -4 5 -12 -3 -21 -8 -10 -9 -17 -1 -22 5 -3 10 -1 10 4 0 6
5 11 10 11 6 0 3 -11 -6 -25 -12 -18 -13 -25 -4 -23 7 2 15 -3 18 -11 3 -10 0
-11 -9 -5 -11 6 -12 5 -2 -7 7 -9 11 -25 8 -37 -2 -12 1 -25 7 -28 7 -5 8 -2
4 7 -4 8 0 5 8 -6 9 -11 14 -26 11 -33 -3 -8 -1 -20 4 -26 9 -11 11 -17 11
-37 0 -5 6 -7 13 -3 7 5 6 0 -3 -11 -9 -11 -10 -16 -3 -11 9 5 13 -2 14 -26 0
-18 3 -27 6 -20 2 6 9 12 14 12 4 0 6 -6 3 -13 -2 -7 2 -26 10 -41 9 -18 16
-23 19 -14 3 7 6 3 6 -10 1 -16 5 -21 13 -16 10 6 10 5 1 -8 -7 -8 -10 -18 -6
-21 3 -4 11 0 18 9 9 13 11 11 9 -15 -1 -16 1 -30 5 -29 23 3 33 -4 28 -21 -3
-12 1 -18 12 -17 9 1 17 -8 19 -21 2 -13 10 -23 18 -23 8 0 23 -9 34 -20 11
-11 25 -20 31 -20 5 0 7 -4 4 -10 -5 -9 1 -12 21 -9 3 0 12 -8 19 -18 7 -10
18 -19 24 -19 6 -1 18 -2 27 -3 8 0 12 -5 9 -11 -9 -14 8 -13 23 2 7 7 12 8
12 2 0 -5 -5 -15 -11 -21 -9 -9 -4 -11 20 -8 21 3 29 0 25 -7 -4 -6 -1 -9 7
-6 8 3 20 -2 28 -9 7 -8 20 -12 27 -9 8 3 14 1 14 -4 0 -6 5 -10 11 -10 5 0 7
6 3 12 -6 10 -5 10 8 1 8 -7 19 -9 24 -5 4 4 2 -1 -5 -11 -13 -16 -12 -17 13
-8 24 10 30 7 27 -12 -1 -4 7 -3 17 2 13 7 23 6 32 -2 9 -8 11 -9 6 0 -7 13
19 12 31 -2 4 -4 1 -5 -7 0 -11 6 -12 5 -4 -4 6 -7 32 -14 58 -16 26 -2 51 -7
56 -10 5 -3 12 0 15 6 5 7 15 3 29 -10 17 -16 23 -18 23 -7 0 8 -5 12 -10 9
-6 -3 -7 -1 -3 5 5 8 13 9 24 3 9 -5 27 -7 40 -5 16 3 22 -1 22 -14 0 -14 2
-15 10 -2 6 10 10 11 10 3 0 -7 5 -13 11 -13 5 0 7 6 3 12 -5 9 -2 9 9 -1 9
-7 17 -10 17 -6 0 5 10 0 22 -11 12 -10 18 -13 14 -6 -6 10 6 12 58 9 43 -2
66 0 66 7 0 6 4 5 9 -3 6 -9 10 -10 16 -2 4 7 12 8 18 3 7 -4 22 -7 35 -6 12
0 22 -3 22 -8 0 -5 6 -6 13 -1 15 10 87 12 87 3 0 -4 -16 -6 -36 -5 -19 1 -37
-1 -39 -5 -6 -9 583 -6 592 4 4 5 3 6 -4 2 -14 -8 -28 10 -14 18 5 4 12 2 16
-4 4 -6 11 -7 17 -4 8 5 9 1 4 -11 -6 -18 -6 -18 15 1 18 15 21 16 17 3 -5
-13 -1 -15 20 -11 24 5 25 6 7 13 -13 5 2 7 37 6 32 -1 60 2 62 8 3 5 5 4 5
-4 1 -11 5 -10 17 5 8 10 13 14 10 7 -4 -6 -2 -14 3 -17 5 -3 12 1 15 10 4 11
10 13 19 7 13 -11 102 -11 112 -1 4 4 -5 5 -19 4 -15 -2 -28 0 -31 4 -2 4 10
6 28 5 18 -1 39 3 47 9 13 10 13 9 1 -7 -8 -9 -11 -20 -7 -24 3 -3 6 -1 6 6 0
8 6 11 16 7 8 -3 12 -2 9 4 -6 9 64 16 104 11 7 -2 10 2 6 9 -6 9 -2 9 15 0
17 -9 25 -9 34 0 8 8 7 10 -6 5 -11 -5 -18 -2 -18 6 0 7 3 9 7 6 3 -4 13 -1
21 6 13 9 14 9 8 0 -4 -8 -2 -13 4 -13 6 0 8 -5 4 -12 -5 -7 -3 -8 5 -4 7 5
10 14 8 20 -3 7 1 13 9 13 9 0 13 -7 9 -16 -5 -14 -4 -14 7 0 12 14 25 17 88
20 17 1 19 3 8 6 -10 2 -18 8 -18 13 0 4 8 7 18 5 9 -1 23 3 31 9 11 8 13 8 8
-1 -5 -7 0 -9 13 -6 11 3 17 9 14 14 -3 5 4 9 16 9 12 0 30 5 41 10 13 8 19 7
19 0 0 -6 5 -8 11 -4 8 4 3 11 -12 19 -23 13 -23 13 7 14 53 1 64 4 64 18 0 8
11 13 28 13 20 0 23 3 12 10 -11 7 -9 11 13 19 18 7 25 15 21 23 -4 6 -3 8 4
4 6 -3 14 -1 17 5 4 5 14 8 22 5 8 -3 12 -2 8 3 -3 5 2 16 11 25 8 9 12 20 9
26 -4 6 -3 10 2 9 20 -4 34 2 28 12 -4 6 3 13 15 16 16 4 18 8 8 14 -10 7 -11
9 0 9 7 0 10 4 7 10 -4 6 1 7 11 3 13 -5 16 -3 11 10 -6 15 3 22 25 18 4 0 5
5 2 13 -3 7 2 19 11 26 12 10 13 16 3 29 -7 9 -9 13 -4 9 14 -12 35 15 24 30
-10 12 2 17 27 12 5 -1 1 8 -10 20 -16 18 -16 20 -2 14 17 -6 20 0 20 39 0 13
4 16 16 12 13 -5 14 -4 4 6 -7 7 -13 20 -12 29 0 10 2 11 6 3 10 -25 18 -12
20 30 3 76 6 85 23 79 11 -4 10 0 -4 17 -15 16 -16 20 -5 16 17 -6 20 20 4 44
-5 9 -4 12 3 7 6 -3 13 -2 17 4 3 5 3 10 -2 10 -11 0 -6 101 7 114 5 5 10 15
10 21 0 5 -5 3 -10 -5 -8 -13 -10 -12 -10 3 0 9 5 17 11 17 6 0 3 7 -5 16 -14
14 -14 18 -1 37 18 26 20 48 3 24 -11 -14 -13 -5 -11 58 1 51 -3 75 -10 75 -8
0 -9 3 -2 8 13 9 14 45 1 54 -6 4 -5 12 2 21 9 11 9 14 -3 14 -8 0 -11 -5 -8
-10 4 -6 1 -7 -6 -2 -9 5 -10 10 -2 18 15 15 14 30 -1 21 -8 -5 -9 -2 -4 11 4
11 2 22 -6 27 -10 6 -10 8 1 8 8 0 4 8 -10 21 l-24 20 25 -11 25 -11 -24 21
c-13 11 -23 31 -23 46 0 14 -7 28 -14 31 -8 3 -14 18 -14 35 0 21 -4 27 -12
22 -8 -5 -8 -2 1 10 8 9 10 16 5 14 -5 -2 -11 2 -13 7 -2 6 -12 16 -23 23 -16
12 -17 16 -6 30 10 12 10 14 0 8 -11 -7 -16 4 -13 31 1 6 -4 15 -10 19 -7 4
-9 3 -5 -4 3 -6 2 -13 -4 -17 -5 -3 -11 3 -11 14 -2 34 -4 39 -13 48 -5 5 -6
3 -2 -4 5 -9 2 -11 -8 -7 -9 3 -15 9 -14 12 3 27 -4 41 -17 36 -10 -4 -15 0
-15 11 0 10 5 13 12 9 7 -4 8 -3 4 4 -4 7 -16 12 -26 12 -14 0 -18 5 -13 17 4
11 3 14 -5 9 -7 -4 -12 -1 -12 9 0 9 -4 13 -10 10 -5 -3 -10 2 -10 11 0 10 -3
14 -6 11 -4 -4 -22 15 -42 41 -19 26 -32 39 -28 30 3 -10 1 -18 -4 -18 -6 0
-10 12 -11 28 0 24 -1 25 -9 7 -6 -14 -9 -16 -10 -5 -2 8 -2 18 -1 23 0 4 -8
7 -20 7 -11 0 -18 4 -15 9 4 5 0 12 -6 14 -7 3 -2 6 11 6 17 1 21 5 17 17 -3
8 -2 12 4 9 6 -3 10 -2 10 4 0 5 9 8 21 6 16 -3 18 -1 10 9 -14 17 -2 29 16
15 10 -9 13 -8 13 1 0 7 8 10 19 7 14 -3 18 -1 14 9 -5 12 8 19 30 15 4 0 7 8
7 19 0 13 7 20 20 20 11 0 23 7 27 16 3 8 12 13 19 10 8 -3 14 -1 14 5 0 6 5
7 12 3 7 -4 8 -3 4 5 -4 6 -12 8 -18 5 -7 -4 -8 -2 -4 5 4 6 15 10 24 9 9 -2
17 2 17 9 0 6 4 15 9 20 5 5 6 3 2 -4 -4 -7 -3 -13 2 -13 6 0 13 7 16 16 4 9
9 14 13 11 3 -4 12 1 20 11 8 9 11 11 7 3 -5 -9 -3 -12 4 -7 7 4 12 16 12 27
0 10 4 18 9 17 4 -2 17 6 27 17 11 12 15 14 9 6 -8 -12 -4 -11 15 2 14 10 25
23 25 30 0 6 8 11 18 11 15 -2 16 1 5 15 -7 9 -9 13 -4 9 5 -4 15 0 24 8 12
13 17 13 24 2 6 -9 7 -5 3 11 -5 15 -3 21 3 17 6 -4 20 4 31 16 12 12 21 18
21 14 0 -5 8 -2 17 5 14 12 16 12 9 -1 -4 -8 1 -5 11 8 13 15 30 23 56 24 21
1 40 5 43 10 3 4 -3 5 -13 1 -16 -6 -16 -5 -4 10 10 13 17 15 27 6 13 -10 18
-6 15 13 0 3 13 3 30 -2 25 -8 29 -7 19 5 -8 10 -8 15 1 21 8 4 9 3 5 -4 -4
-7 -2 -12 3 -12 6 0 11 5 11 11 0 5 4 8 9 5 5 -3 15 2 22 11 12 14 12 16 -1 8
-9 -5 -12 -5 -7 1 8 9 12 10 38 13 8 1 8 6 -1 16 -11 13 -10 14 3 10 9 -4 22
3 32 17 15 19 16 20 11 3 -7 -18 -5 -18 14 3 12 13 18 27 14 35 -5 7 0 5 11
-3 11 -9 16 -10 11 -2 -4 6 -3 12 3 12 6 0 8 7 5 15 -4 10 0 13 15 10 13 -2
18 1 15 9 -6 16 21 40 35 31 6 -3 8 0 5 9 -4 10 2 16 17 18 13 2 23 11 25 22
1 10 8 24 14 30 8 8 10 6 5 -9 -4 -16 -3 -15 6 3 7 12 15 22 19 22 4 0 13 13
20 30 15 35 30 40 24 8 l-5 -23 10 23 c6 12 15 22 21 22 6 0 8 5 5 10 -4 6
-11 7 -17 4 -7 -4 -8 -2 -4 4 4 6 14 8 23 5 13 -5 15 -2 10 12 -6 15 -5 16 7
6 10 -8 16 -9 21 -1 3 5 1 10 -5 10 -6 0 -9 4 -6 8 8 13 -53 5 -71 -10 -9 -7
-14 -8 -11 -3 4 6 -2 11 -12 11 -10 0 -16 -5 -13 -11 2 -7 -9 -11 -27 -11 -16
0 -30 3 -30 8 0 4 -5 8 -11 8 -5 0 -7 -4 -4 -10 3 -6 -5 -10 -19 -10 -13 0
-31 -7 -40 -15 -8 -8 -22 -15 -31 -15 -10 0 -13 -5 -9 -12 4 -7 3 -8 -4 -4
-17 10 -52 16 -51 8 3 -21 -3 -31 -15 -26 -7 3 -16 -2 -19 -10 -4 -9 -13 -16
-22 -16 -8 0 -15 -7 -15 -16 0 -8 -4 -12 -10 -9 -5 3 -10 1 -10 -5 0 -6 -5 -8
-11 -5 -6 4 -13 -2 -16 -14 -3 -11 -9 -19 -13 -16 -4 3 -10 -1 -13 -9 -3 -7
-14 -16 -25 -18 -15 -4 -20 -1 -19 12 1 10 5 16 10 13 5 -3 6 5 2 18 -5 19 -4
21 4 9 10 -14 16 -7 12 14 -1 4 6 15 16 23 10 8 13 12 6 9 -6 -4 -15 -2 -18 4
-4 6 -3 10 2 9 27 -5 30 2 35 58 1 7 5 10 9 7 5 -2 5 -12 2 -22 -3 -9 -2 -14
2 -9 7 6 10 20 14 85 1 6 8 12 16 12 10 0 15 10 15 30 0 17 5 29 11 28 6 -2
14 3 17 11 3 9 0 11 -9 6 -8 -5 -6 0 3 11 14 16 15 23 6 32 -7 7 -8 12 -2 12
5 0 10 12 9 28 0 15 5 36 12 47 8 13 9 26 3 35 -5 9 -5 19 2 27 8 10 6 13 -6
13 -16 0 -16 1 -2 16 21 20 21 30 0 13 -14 -11 -16 -10 -12 11 3 21 -1 24 -29
25 -25 1 -30 -2 -21 -12 8 -10 6 -13 -5 -13 -10 0 -14 -6 -11 -14 3 -8 0 -17
-7 -22 -8 -5 -10 -3 -4 6 5 8 4 11 -3 6 -6 -3 -9 -15 -7 -26 2 -11 1 -19 -3
-19 -28 4 -34 -2 -16 -16 18 -14 18 -14 -3 -8 -19 4 -22 2 -18 -16 3 -16 0
-21 -13 -19 -11 2 -16 -3 -14 -13 1 -10 -6 -19 -17 -22 -14 -3 -19 -11 -16
-26 2 -11 -1 -23 -6 -26 -5 -4 -7 -11 -4 -16 3 -5 -1 -6 -10 -2 -12 4 -16 1
-15 -13 4 -35 0 -46 -14 -41 -10 4 -13 -2 -12 -24 1 -17 -4 -35 -13 -42 -12
-9 -13 -9 -7 0 5 9 2 11 -7 7 -8 -3 -14 -13 -13 -22 0 -10 -5 -16 -13 -14 -8
2 -11 -3 -8 -11 3 -8 0 -20 -6 -26 -6 -6 -7 -11 -2 -11 5 0 1 -6 -9 -13 -9 -7
-18 -22 -19 -35 0 -12 -5 -22 -10 -22 -5 0 -5 10 -2 21 6 19 5 20 -8 8 -8 -8
-13 -18 -10 -22 3 -4 -1 -16 -9 -25 -12 -15 -11 -16 5 -3 15 12 17 12 11 -3
-3 -9 -11 -16 -16 -16 -6 0 -7 -7 -4 -16 6 -14 4 -15 -9 -4 -9 7 -15 9 -14 4
4 -23 -2 -35 -13 -28 -8 5 -8 2 1 -10 12 -15 12 -17 0 -14 -8 2 -13 -4 -13
-14 1 -11 -5 -15 -18 -13 -13 3 -18 0 -15 -9 3 -7 -3 -20 -14 -29 -10 -9 -19
-26 -19 -37 0 -14 -5 -18 -17 -13 -12 5 -15 2 -10 -9 4 -11 -2 -18 -18 -22
-15 -4 -22 -11 -19 -20 3 -8 0 -17 -7 -22 -8 -5 -10 -3 -5 7 4 8 0 5 -8 -5 -9
-11 -16 -24 -16 -29 0 -4 -5 -5 -12 -1 -8 5 -9 2 -5 -10 4 -10 3 -15 -3 -11
-5 3 -17 -3 -27 -15 -10 -11 -26 -20 -36 -20 -15 0 -17 -3 -8 -14 9 -11 7 -13
-11 -12 -17 1 -22 -4 -20 -16 2 -10 -2 -18 -8 -18 -5 0 -10 6 -11 13 0 6 -4 2
-9 -10 -5 -12 -19 -27 -31 -33 -17 -10 -20 -9 -13 2 6 11 5 11 -9 -1 -9 -7
-15 -17 -12 -21 3 -4 -7 -11 -22 -15 -19 -4 -23 -9 -14 -14 10 -6 9 -10 -3
-14 -9 -4 -16 -2 -16 3 0 5 -9 2 -19 -7 -11 -9 -17 -21 -14 -27 4 -6 -2 -4
-12 4 -15 12 -17 12 -10 1 6 -11 4 -13 -8 -8 -10 3 -17 3 -17 -2 0 -4 -7 -8
-15 -9 -8 -1 -22 -3 -30 -4 -8 -1 -12 -5 -9 -9 2 -4 0 -10 -6 -14 -5 -3 -10 0
-10 7 0 10 -3 9 -9 -2 -6 -8 -7 -18 -5 -22 3 -4 -6 -8 -20 -8 -13 0 -31 -7
-39 -15 -9 -9 -17 -11 -19 -4 -2 5 -12 12 -23 14 -11 2 -22 4 -25 5 -3 1 -8 2
-12 1 -5 0 -8 6 -8 14 0 8 -3 14 -7 14 -26 -4 -43 2 -37 14 6 9 4 9 -8 -1 -13
-10 -17 -10 -21 3 -4 8 -13 12 -22 9 -8 -3 -15 -2 -15 4 0 6 -12 9 -26 7 -16
-1 -24 2 -21 9 5 12 -10 15 -78 17 -15 1 -21 8 -21 25 0 12 4 20 8 18 4 -3 8
0 8 6 0 7 7 10 15 6 8 -3 15 -2 15 2 0 4 10 8 21 9 27 2 71 42 62 57 -4 6 2 4
12 -4 15 -12 17 -12 10 -1 -6 11 -4 13 9 8 14 -6 17 -3 12 8 -3 9 -2 13 4 10
10 -6 57 35 53 47 -2 4 7 5 18 3 18 -4 19 -2 7 12 -7 9 -8 14 -2 10 6 -3 20 1
30 9 10 9 13 13 7 9 -8 -4 -11 -1 -7 9 3 8 14 13 24 11 13 -2 16 1 13 15 -3
10 1 21 8 25 8 6 10 4 4 -5 -5 -9 -4 -11 3 -6 7 4 12 14 12 22 0 10 5 12 13 8
7 -5 7 -1 -3 12 -8 10 -11 16 -6 12 11 -10 35 14 29 29 -3 7 2 13 12 13 9 0
14 3 11 8 -6 11 22 74 31 69 5 -3 7 14 7 38 -1 30 3 45 12 49 12 5 12 2 3 -15
-6 -11 -9 -23 -6 -25 2 -2 9 7 15 21 7 16 8 26 1 31 -6 4 -6 11 2 20 6 8 8 14
4 14 -4 0 -1 8 6 17 8 9 9 14 4 11 -7 -4 -11 3 -11 17 0 13 4 21 8 19 5 -3 6
-10 3 -15 -4 -5 -2 -9 3 -9 5 0 10 10 10 23 0 12 1 29 3 37 3 9 -2 14 -11 12
-12 -3 -12 -1 1 15 9 11 15 37 14 66 0 38 3 46 15 42 11 -4 10 -1 -2 9 -20 15
-24 31 -5 20 9 -6 9 -4 1 7 -8 11 -12 94 -4 94 7 0 6 36 -1 41 -5 3 -9 10 -9
15 0 6 6 7 13 3 9 -6 9 -5 0 7 -6 8 -10 35 -10 61 1 25 -1 44 -5 41 -5 -2 -8
1 -8 6 0 6 5 11 12 11 6 0 8 3 4 7 -4 5 -13 0 -21 -10 -11 -15 -12 -11 -10 30
2 27 -1 53 -6 60 -7 7 -6 14 1 18 6 3 7 12 3 18 -4 7 1 6 10 -2 15 -12 17 -12
11 4 -5 13 -4 16 4 11 7 -4 12 -2 12 4 0 7 7 10 15 6 9 -3 15 0 15 9 0 7 14
16 30 20 17 4 30 13 30 20 0 8 5 17 12 21 8 5 9 2 5 -9 -3 -10 -4 -17 -1 -17
2 0 9 11 14 25 5 14 21 30 35 35 14 5 25 17 25 25 0 10 5 13 13 9 8 -5 8 -2
-2 9 -12 15 -11 17 3 17 10 0 17 7 15 18 -3 30 1 43 10 37 5 -3 13 -1 16 5 4
6 1 9 -7 8 -7 -2 -14 8 -16 22 -2 19 -1 22 7 10 8 -12 10 -11 8 7 0 12 -5 19
-9 17 -7 -4 -9 6 -8 31 1 3 -6 13 -15 21 -8 9 -15 22 -15 29 0 10 -6 12 -17 8
-15 -6 -16 -4 -5 9 14 18 6 27 -20 23 -11 -2 -15 2 -11 11 3 9 -2 14 -17 14
-11 0 -18 5 -15 10 3 6 1 10 -5 10 -6 0 -8 5 -4 11 4 8 0 9 -15 4 -19 -6 -26
2 -23 26 1 4 -8 5 -18 2 -12 -3 -20 0 -20 6 0 7 -4 10 -9 7 -5 -3 -12 1 -15
10 -4 9 -13 14 -21 10 -8 -3 -15 0 -15 7 0 8 -4 6 -10 -3 -8 -13 -10 -12 -10
2 0 10 -3 17 -7 17 -22 -4 -33 2 -27 14 5 8 2 8 -9 -2 -14 -11 -17 -11 -18 0
-1 8 -1 18 1 24 1 5 -9 1 -21 -10 -12 -11 -19 -15 -16 -8 10 16 -2 22 -56 24
-26 2 -47 7 -47 12 0 5 7 6 16 3 8 -3 12 -2 9 4 -3 6 -15 10 -25 10 -17 0 -19
8 -19 60 1 43 4 58 12 53 9 -5 9 -3 0 8 -15 18 -15 99 1 118 8 11 8 13 0 8 -8
-5 -12 6 -12 33 -1 26 3 38 10 34 5 -4 2 5 -7 20 -10 14 -13 26 -8 26 6 0 8
12 5 26 -3 19 -7 22 -13 12 -7 -10 -9 -9 -10 5 -3 38 -5 42 -22 41 -17 -2 -17
-1 -2 16 16 18 16 18 -6 13 -18 -5 -21 -3 -16 11 4 9 3 14 -2 11 -5 -3 -12 -1
-16 5 -4 6 -11 8 -16 5 -5 -3 -6 2 -2 11 5 14 2 16 -15 12 -17 -5 -22 -2 -22
14 0 10 -4 16 -10 13 -5 -3 -10 -2 -10 4 0 6 -6 8 -14 5 -7 -3 -21 2 -30 11
-9 9 -31 17 -48 17 -18 1 -27 3 -20 5 6 3 12 9 12 14 0 4 -7 6 -15 3 -9 -4
-15 0 -15 7 0 11 -3 11 -10 -1 -6 -9 -10 -10 -10 -3 0 6 -9 10 -20 8 -11 -2
-23 3 -28 11 -5 10 -25 16 -53 17 -26 1 -49 8 -57 17 -10 13 -11 12 -5 -5 6
-18 5 -18 -10 -6 -9 7 -14 18 -11 23 4 6 -2 5 -14 -1 -11 -6 -23 -16 -25 -23
-3 -7 -6 -2 -6 12 -1 20 -3 22 -11 10 -6 -10 -10 -11 -10 -2 0 6 -5 12 -11 12
-5 0 -7 -5 -3 -12 5 -7 3 -8 -7 -2 -15 9 -398 14 -414 5 -15 -8 -39 -7 -46 2
-7 10 -41 -2 -34 -12 2 -4 -2 -8 -10 -8 -8 0 -12 4 -9 8 2 4 -1 11 -8 15 -7 4
-10 4 -6 -1z m-132 -49 c0 -3 -4 -8 -10 -11 -5 -3 -10 -1 -10 4 0 6 5 11 10
11 6 0 10 -2 10 -4z m870 -2 c0 -8 -19 -13 -24 -6 -3 5 1 9 9 9 8 0 15 -2 15
-3z m1370 -1808 c0 -3 -4 -8 -10 -11 -5 -3 -10 -1 -10 4 0 6 5 11 10 11 6 0
10 -2 10 -4z m277 -131 c0 -8 -4 -12 -9 -9 -5 3 -6 10 -3 15 9 13 12 11 12 -6z
m-3120 -67 c2 -17 0 -19 -7 -8 -5 8 -6 18 -4 22 8 12 10 10 11 -14z m1728
-448 c-3 -5 -12 -10 -18 -10 -7 0 -6 4 3 10 19 12 23 12 15 0z m-2319 -225 c9
-8 11 -15 6 -15 -5 0 -15 7 -22 15 -7 8 -9 15 -6 15 4 0 14 -7 22 -15z m1474
-2154 c0 -4 -11 -7 -24 -7 -14 0 -23 3 -21 6 5 9 45 10 45 1z m30 -1 c0 -5 -2
-10 -4 -10 -3 0 -8 5 -11 10 -3 6 -1 10 4 10 6 0 11 -4 11 -10z m70 -1 c0 -4
-12 -5 -27 -3 -39 7 -41 13 -4 12 17 -1 31 -5 31 -9z m60 2 c0 -10 -39 -11
-45 -2 -2 5 7 9 20 9 14 0 25 -3 25 -7z m45 0 c-9 -8 -36 -10 -30 -2 2 4 11 8
20 8 8 0 13 -3 10 -6z m39 1 c3 -5 -1 -9 -9 -9 -8 0 -15 4 -15 9 0 10 17 10
24 0z m60 0 c2 -4 -7 -8 -20 -8 -13 -1 -24 1 -24 5 0 9 38 12 44 3z m56 0 c0
-4 -9 -8 -20 -9 -11 -1 -20 2 -20 5 0 4 9 8 20 9 11 1 20 -2 20 -5z m60 -1 c0
-4 -11 -7 -24 -7 -14 0 -23 3 -21 6 5 9 45 10 45 1z"/>
<path d="M3901 4802 c-8 -14 -10 -14 -11 -2 0 13 -2 13 -9 0 -6 -8 -7 -18 -4
-22 8 -15 -15 -35 -39 -33 -21 2 -58 -24 -52 -36 2 -4 -5 -14 -16 -24 -13 -11
-20 -14 -20 -6 0 7 -5 9 -11 6 -6 -5 -4 -12 8 -21 17 -12 17 -13 -4 -9 -13 2
-25 0 -28 -6 -4 -5 -2 -9 3 -9 12 0 3 -38 -11 -47 -6 -4 -7 -1 -2 8 7 11 6 12
-7 2 -8 -7 -18 -10 -21 -6 -4 3 -7 1 -7 -6 0 -7 -4 -10 -9 -7 -5 4 -7 -4 -3
-16 3 -14 1 -19 -6 -14 -8 5 -10 2 -6 -8 3 -9 14 -16 23 -16 27 0 28 -66 1
-75 -11 -3 -20 -11 -20 -17 0 -6 3 -8 7 -5 3 4 17 -3 30 -15 19 -18 23 -19 23
-5 0 9 5 18 10 18 20 3 25 4 39 13 11 7 12 6 6 -5 -8 -12 -6 -12 8 0 9 7 14
18 11 23 -8 13 85 3 99 -11 7 -7 3 -8 -12 -4 -13 3 -21 1 -21 -6 0 -7 4 -10 9
-7 5 3 11 -1 15 -9 3 -8 0 -17 -6 -21 -7 -4 -8 -3 -4 4 4 7 3 12 -2 12 -5 0
-14 -10 -21 -22 -6 -13 -9 -15 -7 -5 5 15 3 16 -15 6 -16 -8 -20 -8 -14 0 7
13 -35 9 -57 -5 -8 -5 -9 -2 -5 9 3 9 1 19 -5 23 -7 4 -8 3 -4 -4 4 -7 2 -12
-4 -12 -7 0 -10 -7 -6 -15 3 -10 -3 -17 -19 -21 -14 -3 -22 -10 -19 -15 3 -5
10 -6 16 -3 6 4 8 2 4 -4 -3 -6 -2 -13 4 -17 6 -4 8 -10 5 -14 -2 -5 9 -11 26
-15 l31 -6 -23 -21 c-13 -11 -18 -18 -11 -14 7 4 12 0 12 -9 0 -8 -6 -14 -12
-12 -7 1 -10 1 -5 -1 4 -3 5 -8 3 -11 -2 -4 9 -8 24 -9 21 -2 28 2 24 12 -4
10 1 13 21 9 20 -3 25 -1 19 8 -5 10 -4 11 6 1 16 -15 23 -46 9 -37 -5 3 -6
10 -3 16 4 7 2 8 -5 4 -14 -9 0 -31 31 -47 16 -8 19 -7 16 7 -2 9 3 19 10 21
8 3 10 -1 5 -14 -3 -10 -2 -15 3 -10 5 5 9 41 9 80 0 63 2 72 18 70 12 0 16 4
13 13 -3 8 -1 14 4 14 6 0 10 -6 10 -12 0 -9 4 -8 10 2 7 11 10 6 10 -20 0
-26 3 -31 10 -20 5 8 10 10 10 4 0 -5 -6 -16 -12 -23 -11 -11 -10 -13 5 -8 11
4 16 3 12 -3 -3 -6 -13 -10 -20 -10 -9 0 -12 -6 -8 -17 5 -12 2 -15 -10 -10
-14 5 -17 0 -17 -36 0 -53 17 -83 27 -48 6 23 7 23 21 5 12 -15 14 -16 9 -2
-3 9 1 22 11 30 11 9 14 10 8 1 -4 -7 -2 -13 3 -13 6 0 11 -9 11 -19 0 -13 8
-21 23 -23 13 -2 21 -9 19 -18 -2 -8 0 -12 4 -7 4 4 9 17 11 29 2 12 11 31 21
42 16 20 16 20 0 7 -12 -9 -18 -10 -18 -2 0 11 5 13 33 15 6 1 15 6 19 11 5 6
8 5 8 -3 0 -10 5 -10 20 -2 21 11 28 40 10 40 -5 0 -10 7 -10 15 0 14 -12 20
-33 16 -5 -1 -6 3 -2 9 3 5 -1 10 -9 10 -9 0 -16 6 -16 13 0 8 -4 7 -10 -3 -8
-12 -10 -10 -10 10 0 16 -3 20 -8 13 -5 -9 -11 -6 -21 9 -11 18 -11 20 3 15
14 -6 15 -3 5 16 -6 12 -8 19 -4 15 5 -4 15 -2 23 5 13 10 15 9 9 -5 -7 -21 3
-24 21 -6 9 9 11 6 7 -11 -3 -19 -2 -21 10 -11 12 10 15 9 15 -7 0 -11 9 -28
21 -39 11 -10 18 -26 16 -35 -3 -12 2 -15 21 -13 31 3 42 19 42 61 0 17 4 34
9 37 5 4 7 -4 4 -16 -6 -22 -6 -22 15 2 19 21 21 22 16 5 -7 -19 -6 -20 8 -1
9 12 20 16 29 12 8 -4 6 -1 -5 8 -10 8 -16 22 -13 30 5 13 -17 31 -35 28 -5
-1 -3 28 2 36 2 1 3 8 4 15 1 6 7 11 14 9 7 -1 12 4 12 12 0 8 -14 15 -35 18
-19 2 -35 0 -35 -6 0 -5 -7 -1 -15 10 -13 18 -14 17 -9 -9 3 -17 1 -26 -5 -23
-5 4 -12 2 -15 -3 -3 -5 -16 -7 -29 -3 -20 5 -21 4 -7 -14 14 -19 14 -19 -8 0
-12 11 -22 16 -22 11 0 -4 -6 -2 -13 4 -8 6 -16 8 -19 6 -3 -3 -3 7 0 22 5 25
6 25 13 8 5 -14 8 -16 9 -5 2 8 2 17 2 20 0 3 15 6 34 7 21 2 34 -2 34 -9 0
-6 6 -3 14 7 13 18 13 18 24 -1 11 -19 11 -19 12 0 0 20 0 20 15 0 15 -18 15
-18 8 0 -5 15 -3 17 8 11 8 -4 11 -5 7 0 -4 4 -3 16 3 26 7 13 6 19 -1 19 -6
0 -8 5 -4 12 5 7 2 9 -8 6 -24 -10 -41 8 -41 44 0 33 -12 58 -29 58 -5 0 -7
-4 -4 -8 2 -4 -11 -8 -30 -9 -30 -1 -33 1 -22 15 9 10 9 13 1 9 -7 -5 -13 1
-15 14 -2 12 -11 23 -20 25 -11 1 -15 -3 -11 -12 3 -8 0 -14 -7 -14 -6 0 -8
-4 -5 -10 3 -5 1 -10 -4 -10 -6 0 -11 5 -11 11 0 5 -5 7 -10 4 -7 -4 -2 -15
12 -27 13 -13 16 -19 7 -16 -12 5 -16 -2 -17 -35 -1 -23 -2 -49 -3 -57 0 -9
-11 -16 -25 -16 -21 -2 -23 0 -12 14 11 13 10 14 -7 5 -18 -10 -20 -8 -21 18
-1 16 2 27 6 24 4 -2 6 7 4 21 -2 19 1 24 12 20 14 -5 16 1 16 49 0 53 -2 62
-17 62 -12 0 -12 -3 -2 -16 9 -12 9 -13 0 -7 -9 5 -13 1 -13 -10 0 -17 -1 -17
-13 1 -13 17 -15 17 -31 -6 -10 -14 -17 -18 -15 -9 5 47 -21 75 -40 42z m72
-37 c-3 -9 -8 -14 -10 -11 -3 3 -2 9 2 15 9 16 15 13 8 -4z m-167 -101 c-5
-14 -9 -14 -22 -3 -14 12 -14 14 2 26 21 15 30 3 20 -23z m44 -20 c0 -7 7 -15
16 -18 15 -6 15 -4 4 11 -8 10 -2 7 11 -7 14 -13 26 -34 27 -46 1 -18 -3 -21
-28 -20 -33 1 -36 5 -17 26 9 11 8 11 -7 0 -15 -12 -20 -12 -23 -2 -3 6 -10 9
-15 5 -7 -4 -9 2 -6 15 4 12 2 22 -3 22 -4 0 -6 6 -3 14 7 17 44 17 44 0z
m-155 -204 c3 -5 2 -10 -4 -10 -5 0 -13 5 -16 10 -3 6 -2 10 4 10 5 0 13 -4
16 -10z"/>
<path d="M4049 4788 c-5 -18 -6 -38 -1 -34 7 8 12 36 6 36 -2 0 -4 -1 -5 -2z"/>
<path d="M1805 4749 c-4 -6 -5 -12 -2 -15 2 -3 7 2 10 11 7 17 1 20 -8 4z"/>
<path d="M4210 4743 c0 -12 28 -38 34 -32 2 2 -5 13 -15 23 -11 11 -19 15 -19
9z"/>
<path d="M190 4679 c0 -5 5 -7 10 -4 6 3 10 8 10 11 0 2 -4 4 -10 4 -5 0 -10
-5 -10 -11z"/>
<path d="M4153 4317 c0 -8 6 -14 14 -14 9 0 10 4 2 14 -6 7 -12 13 -14 13 -1
0 -2 -6 -2 -13z"/>
<path d="M4530 4280 c0 -5 -7 -7 -15 -4 -10 4 -13 0 -10 -15 2 -12 0 -21 -5
-21 -5 0 -7 -6 -4 -14 4 -10 -4 -13 -28 -13 -24 1 -33 -3 -32 -15 1 -8 -5 -15
-14 -14 -8 0 -17 -5 -20 -13 -3 -8 0 -11 6 -7 6 4 10 -2 9 -14 -1 -18 -27 -30
-27 -12 0 4 -10 8 -21 9 -21 2 -21 1 -3 -12 18 -13 18 -13 -1 -12 -16 2 -20
-3 -18 -29 3 -31 0 -33 -47 -35 -10 0 -17 -11 -18 -30 -2 -23 3 -31 21 -38 13
-5 24 -16 24 -25 0 -8 -4 -13 -9 -10 -4 3 -8 -4 -8 -15 0 -15 -5 -19 -17 -14
-15 5 -15 3 1 -9 11 -8 17 -22 14 -30 -4 -9 0 -15 8 -15 8 0 14 7 15 16 0 10
4 7 10 -7 5 -13 12 -21 17 -18 4 2 14 1 21 -3 7 -5 0 -8 -20 -9 -17 0 -37 -6
-43 -13 -8 -9 -7 -10 4 -4 13 8 13 6 2 -8 -15 -17 -9 -37 11 -37 7 0 6 4 -3
10 -13 8 -12 10 3 10 9 0 17 -7 17 -16 0 -8 5 -12 10 -9 6 3 11 1 11 -4 1 -6
2 -17 3 -23 1 -7 -3 -16 -9 -20 -5 -4 -10 -16 -11 -26 -1 -13 7 -19 28 -20 16
-1 27 1 25 5 -3 5 6 13 19 20 27 13 38 4 40 -35 0 -12 4 -25 7 -28 10 -10 39
5 32 16 -9 14 8 12 25 -2 8 -7 6 -3 -5 10 -14 17 -16 23 -5 20 11 -2 14 4 12
22 -8 55 -4 87 12 93 21 8 73 -7 58 -17 -7 -4 -10 -11 -7 -16 3 -5 1 -19 -6
-31 -7 -15 -8 -19 0 -15 7 5 8 1 5 -9 -4 -9 -12 -14 -20 -11 -7 3 -12 -2 -12
-12 0 -9 0 -21 -2 -27 -1 -5 -2 -21 -1 -34 1 -20 3 -21 16 -11 8 7 21 10 29 7
11 -4 13 -1 9 11 -6 15 -5 15 10 3 15 -12 17 -12 11 3 -3 9 -1 16 5 16 9 0 16
-28 12 -52 0 -4 7 -4 16 -1 12 5 14 3 8 -8 -4 -8 -5 -11 0 -7 4 4 15 2 24 -4
13 -10 14 -10 4 2 -19 21 -16 34 5 19 9 -7 14 -10 10 -5 -4 5 -3 17 3 28 7 13
7 23 0 32 -7 8 -5 12 10 13 10 1 19 -2 19 -8 0 -5 5 -9 11 -9 5 0 7 5 4 11 -4
6 -1 10 6 8 28 -3 39 1 39 17 0 8 -4 12 -10 9 -5 -3 -11 -1 -11 4 -1 6 -2 17
-3 24 0 6 -8 12 -16 12 -8 1 -14 6 -12 13 1 7 -2 13 -8 13 -5 1 -14 3 -20 4
-5 1 -15 3 -21 4 -5 0 -7 6 -4 11 4 6 11 7 17 4 7 -4 8 -2 4 5 -4 6 -12 8 -18
5 -13 -8 -29 16 -20 31 4 5 7 13 7 18 0 4 5 6 10 5 6 -2 9 -6 7 -10 -3 -12 13
-9 27 5 10 10 12 8 9 -8 -2 -13 3 -20 12 -20 8 0 18 -11 21 -25 3 -14 10 -24
17 -22 7 1 12 -5 12 -13 0 -12 -4 -14 -19 -5 -14 7 -22 7 -26 0 -4 -6 -3 -9 2
-8 4 1 19 -2 33 -6 24 -8 24 -9 5 -17 -15 -6 -16 -8 -4 -8 9 -1 22 6 29 14 10
12 17 12 34 3 19 -10 20 -10 7 5 -7 10 -9 17 -4 17 6 0 9 11 7 25 -2 21 1 25
17 20 11 -4 19 -2 19 5 0 6 -4 8 -10 5 -5 -3 -10 -2 -10 3 0 5 9 12 20 15 13
3 18 1 13 -5 -3 -7 -1 -8 6 -4 7 4 11 15 9 24 -1 10 1 23 5 30 5 7 5 12 0 11
-17 -4 -64 21 -58 31 3 5 8 10 11 10 3 0 2 -4 -1 -10 -3 -5 -4 -10 0 -10 6 0
28 52 25 59 -1 2 4 8 12 13 10 8 9 9 -4 5 -9 -3 -19 -3 -22 0 -3 4 -21 7 -40
8 -23 1 -32 -3 -29 -11 3 -7 12 -10 21 -7 15 4 15 3 2 -6 -8 -6 -25 -11 -38
-11 -12 0 -21 -5 -20 -11 4 -14 -41 -19 -49 -6 -3 6 -1 7 5 3 7 -4 12 -2 12 5
0 6 -8 9 -18 7 -10 -3 -24 1 -31 9 -11 12 -10 15 8 20 12 3 21 10 21 15 0 5
-4 6 -10 3 -16 -10 -11 1 7 16 10 8 14 9 10 2 -4 -6 -3 -14 3 -18 5 -3 10 -1
10 4 0 6 12 11 26 11 17 0 23 -4 18 -12 -6 -10 -4 -10 7 -2 13 10 26 13 70 15
9 0 16 7 16 15 0 9 -6 13 -15 9 -12 -4 -13 -3 -3 9 17 20 6 36 -20 31 -17 -4
-19 -2 -8 11 9 12 9 13 -2 9 -10 -4 -15 1 -15 15 0 11 7 20 16 21 10 0 11 2 3
6 -7 2 -13 9 -13 14 0 4 7 5 17 2 10 -4 14 -2 10 4 -9 15 -54 22 -66 10 -5 -5
-7 -17 -4 -26 4 -13 3 -14 -5 -1 -6 8 -8 19 -4 25 3 5 -2 4 -11 -4 -12 -9 -17
-10 -17 -2 0 7 -4 9 -10 6 -6 -3 -7 1 -3 10 5 14 8 14 15 3 8 -10 9 -10 5 2
-2 8 -10 15 -18 15 -8 0 -15 6 -15 13 -3 26 -5 26 -18 2 -8 -14 -12 -29 -9
-34 4 -5 1 -6 -5 -2 -6 4 -8 14 -5 23 4 11 3 14 -6 9 -7 -5 -12 -31 -12 -69 1
-95 0 -99 -18 -84 -9 7 -12 8 -8 1 4 -7 -2 -13 -16 -16 -19 -4 -23 0 -22 21 1
14 -3 34 -8 45 -7 14 -6 16 4 11 9 -6 11 -3 6 8 -6 16 3 22 26 18 5 -1 6 3 2
9 -3 6 -12 7 -18 4 -7 -4 -2 3 11 15 19 19 21 25 10 39 -11 14 -10 15 7 9 18
-7 19 -6 3 6 -10 8 -16 16 -13 19 3 2 -2 5 -10 5 -8 0 -12 -4 -9 -9 5 -8 -6
-10 -41 -10 -39 0 -47 3 -42 16 3 8 -1 17 -9 20 -8 3 -14 1 -14 -4z m67 -57
c0 -8 -6 -9 -19 -2 -10 5 -18 11 -18 12 0 2 8 3 18 3 10 0 19 -6 19 -13z
m-162 -95 c-4 -16 -4 -19 3 -9 13 18 35 4 28 -18 -5 -12 -2 -11 9 3 13 18 15
18 15 2 0 -10 6 -16 16 -14 10 2 19 -4 21 -12 4 -13 3 -13 -6 0 -6 8 -11 10
-11 4 0 -6 7 -17 15 -24 21 -18 9 -30 -29 -28 -26 1 -33 5 -28 16 3 9 1 13 -5
9 -9 -6 -21 9 -28 36 -2 4 -4 8 -5 10 -8 7 -6 47 2 47 5 0 6 -10 3 -22z m92
-123 c0 -8 -4 -12 -9 -9 -5 3 -6 10 -3 15 9 13 12 11 12 -6z m-88 -79 c10 -6
12 -5 7 3 -6 8 0 11 20 8 21 -3 28 -10 31 -30 3 -20 -1 -27 -12 -27 -9 0 -13
-5 -9 -11 4 -7 -1 -7 -16 1 -21 11 -22 10 -16 -6 6 -18 5 -18 -9 0 -10 14 -15
15 -15 6 0 -10 -3 -11 -11 -3 -6 6 -18 9 -25 6 -8 -3 -14 1 -14 8 0 11 -3 11
-10 -1 -8 -12 -10 -11 -10 6 0 17 6 21 28 20 20 -1 26 3 24 16 -3 17 13 19 37
4z m136 -86 c-3 -5 -1 -10 6 -10 7 0 10 -3 6 -6 -9 -9 -28 6 -22 17 4 5 8 9
11 9 3 0 2 -4 -1 -10z m-201 -126 c3 -8 2 -12 -4 -9 -6 3 -10 10 -10 16 0 14
7 11 14 -7z"/>
<path d="M4460 3919 c0 -4 6 -9 13 -12 8 -3 14 0 14 7 0 7 -6 13 -14 13 -7 0
-13 -4 -13 -8z"/>
<path d="M749 3782 c-1 -4 -1 -22 -1 -39 0 -18 -4 -33 -9 -33 -5 0 -9 6 -9 13
0 8 -4 7 -10 -3 -7 -11 -10 -11 -10 -2 0 8 -5 10 -12 5 -13 -8 -18 -9 -38 -12
-5 0 -10 -6 -10 -12 0 -5 5 -7 11 -3 7 4 7 -1 -1 -16 -11 -20 -10 -22 5 -16
12 4 18 0 22 -14 3 -11 13 -21 22 -22 9 0 21 -2 27 -2 26 -3 45 -30 42 -60 -3
-29 -5 -31 -43 -30 -23 0 -41 5 -41 12 -1 7 -2 21 -3 32 0 11 -6 20 -12 20 -5
0 -7 -6 -4 -12 4 -7 0 -4 -9 7 -8 11 -20 25 -26 32 -5 7 -10 16 -10 20 1 4 10
-3 20 -16 11 -13 20 -19 20 -13 0 20 -29 39 -53 35 -24 -5 -32 -28 -16 -48 13
-17 -7 -38 -38 -40 -15 -2 -31 -3 -34 -4 -10 -2 2 -51 13 -51 5 0 6 -4 3 -10
-3 -5 0 -7 9 -4 21 8 14 -22 -10 -42 -10 -8 -13 -13 -6 -9 6 3 12 1 12 -4 0
-6 -4 -11 -10 -11 -19 0 -10 -15 15 -27 14 -6 23 -7 20 -3 -3 5 5 7 18 4 17
-3 30 3 43 21 17 22 43 37 30 17 -6 -10 56 -8 72 2 15 9 16 -6 1 -21 -6 -6
-12 -19 -13 -29 -2 -16 -12 -19 -57 -20 -30 0 -60 4 -68 10 -12 9 -13 7 -8 -8
6 -15 5 -17 -7 -7 -11 9 -15 7 -20 -11 -8 -33 -7 -48 4 -48 5 0 7 7 3 16 -3 9
6 4 23 -11 31 -29 39 -52 18 -52 -7 0 -10 5 -7 10 3 6 1 7 -6 3 -9 -6 -9 -11
0 -22 9 -11 9 -14 0 -14 -7 0 -9 -5 -6 -10 4 -6 11 -8 16 -5 8 5 13 -7 10 -27
-1 -12 28 -2 49 17 12 11 20 13 20 6 0 -7 5 -9 13 -5 8 5 7 2 -2 -9 -12 -15
-12 -17 4 -11 11 5 16 3 12 -3 -3 -5 3 -17 14 -26 18 -16 19 -16 20 16 0 17 3
26 6 18 4 -11 7 -11 14 0 5 9 10 5 14 -14 6 -24 16 -31 37 -28 4 0 5 -5 2 -12
-3 -8 2 -14 10 -14 8 0 12 6 9 14 -3 9 0 11 10 7 8 -3 18 0 23 7 5 8 3 10 -7
4 -11 -6 -11 -5 -2 5 12 13 37 4 28 -11 -4 -5 -1 -9 4 -9 6 0 11 -6 11 -14 0
-8 8 -13 18 -11 9 2 22 4 29 4 6 1 11 10 10 20 0 11 -4 18 -7 16 -4 -2 -7 2
-7 10 0 8 4 12 9 9 7 -5 12 10 9 28 0 4 6 5 15 1 13 -5 13 -7 2 -14 -9 -6 -4
-9 16 -9 20 0 27 4 23 14 -4 10 -1 13 8 9 8 -3 12 -10 8 -16 -3 -6 -1 -7 5 -3
13 8 5 36 -10 36 -5 0 -6 5 -3 10 3 6 1 10 -5 10 -7 0 -9 7 -6 16 3 8 2 12 -4
9 -6 -3 -10 0 -10 7 0 9 -3 9 -10 -2 -6 -10 -10 -11 -10 -2 0 6 -6 11 -12 10
-7 -2 -12 3 -10 10 1 6 -7 12 -19 12 -11 0 -18 4 -15 9 9 14 -5 42 -18 34 -6
-3 -7 -2 -3 3 5 5 14 9 20 9 7 1 11 7 9 14 -1 8 2 10 10 4 14 -8 19 -10 44
-12 8 0 12 -5 9 -11 -3 -5 1 -10 9 -10 11 0 16 -9 16 -30 0 -19 5 -30 14 -30
22 0 29 -19 15 -38 -11 -14 -11 -15 1 -4 18 15 34 16 24 0 -4 -6 -3 -8 4 -5 5
4 8 17 6 30 -2 12 -2 16 2 10 9 -19 24 -16 17 4 -5 12 -3 14 8 9 8 -4 4 1 -9
11 -21 18 -22 20 -7 33 11 9 19 10 26 3 17 -17 59 8 57 34 -1 12 -6 19 -10 17
-4 -3 -8 0 -8 6 0 6 -4 8 -10 5 -5 -3 -10 2 -10 12 0 15 -2 16 -10 3 -7 -12
-9 -10 -7 7 0 12 6 21 11 20 6 -1 10 12 10 28 1 17 5 33 9 36 5 3 1 9 -8 12
-9 4 -13 3 -10 -3 3 -6 1 -10 -5 -10 -6 0 -8 -5 -5 -11 4 -6 -2 -5 -13 2 -19
12 -20 14 -4 53 12 29 13 41 4 44 -7 2 -10 8 -7 13 4 5 0 6 -8 3 -8 -3 -17 2
-21 11 -4 11 -2 14 6 9 8 -5 9 -2 5 9 -4 10 -1 17 6 17 8 0 8 3 -2 9 -11 7
-11 9 0 14 10 4 10 6 2 6 -7 1 -13 7 -13 14 0 8 -7 14 -15 14 -10 0 -14 -6
-10 -14 3 -11 -1 -13 -16 -8 -14 5 -19 3 -15 -3 4 -6 -2 -8 -15 -5 -13 4 -17
8 -9 13 8 5 7 9 -4 13 -9 4 -15 12 -14 18 2 6 -3 14 -11 17 -10 3 -11 0 -5 -9
7 -12 5 -12 -9 0 -14 11 -18 11 -22 0 -10 -26 -12 -79 -4 -84 4 -3 3 -19 -3
-35 -7 -20 -17 -30 -31 -31 -12 0 -16 -3 -9 -6 6 -2 10 -9 7 -13 -3 -5 -12 -7
-20 -4 -8 4 -12 11 -8 17 4 6 0 8 -8 5 -11 -4 -14 1 -13 21 2 40 3 43 14 36 7
-4 9 3 6 20 -4 24 -3 25 11 13 12 -9 15 -9 9 0 -4 6 -3 12 3 12 6 0 9 19 8 45
-1 35 -6 45 -19 45 -9 0 -20 -4 -23 -10 -4 -6 1 -7 12 -4 15 5 15 4 3 -4 -8
-6 -17 -9 -21 -6 -4 2 -10 0 -14 -6 -4 -7 -14 -6 -28 2 -12 6 -24 12 -27 12
-3 1 -4 6 -2 11 1 6 -7 11 -18 12 -11 1 -21 -1 -21 -5z m326 -251 c14 -1 21
-8 22 -22 1 -12 -1 -18 -4 -15 -4 3 -14 -1 -23 -9 -14 -13 -53 -20 -87 -16 -7
0 -13 15 -13 32 0 16 3 28 8 26 4 -3 16 -1 27 3 11 4 27 6 35 4 8 -1 24 -3 35
-3z m100 -151 c3 -6 -1 -7 -9 -4 -18 7 -21 14 -7 14 6 0 13 -4 16 -10z m-329
-66 c0 -16 -5 -32 -10 -36 -7 -5 -6 -8 4 -8 9 0 7 -6 -8 -16 -13 -9 -21 -22
-18 -30 3 -8 1 -14 -5 -14 -6 0 -7 -4 -4 -10 3 -5 1 -10 -4 -10 -10 0 -15 14
-12 34 1 5 -5 6 -13 3 -9 -4 -18 -1 -22 5 -4 7 -3 8 4 4 7 -4 13 -1 13 8 2 18
5 35 9 39 1 1 3 13 4 25 5 48 61 53 62 6z m-74 -28 c-4 -6 -7 -14 -7 -18 0
-19 -11 -14 -11 6 0 12 6 23 13 23 6 0 9 -5 5 -11z m-112 -70 c0 -3 -4 -8 -10
-11 -5 -3 -10 -1 -10 4 0 6 5 11 10 11 6 0 10 -2 10 -4z"/>
<path d="M4436 3711 c-4 -5 -2 -12 4 -16 6 -4 7 -11 4 -17 -4 -6 -2 -8 4 -5
10 7 11 32 0 42 -3 4 -9 2 -12 -4z"/>
<path d="M3879 3670 c0 -3 -3 -14 -5 -25 -3 -11 -6 -26 -6 -33 -1 -7 -7 -11
-15 -8 -7 3 -12 2 -12 -2 3 -19 -3 -22 -21 -12 -14 7 -20 7 -20 0 0 -5 -3 -9
-7 -9 -20 3 -27 -2 -14 -10 11 -7 12 -13 3 -23 -7 -9 -8 -19 -2 -28 7 -10 10
-11 10 -2 0 17 17 15 24 -4 4 -10 2 -13 -7 -8 -9 5 -8 3 1 -7 11 -12 14 -12
22 1 8 12 11 11 16 -8 5 -18 9 -20 15 -10 7 10 9 9 9 -4 0 -9 5 -20 12 -24 6
-4 8 -3 5 3 -3 5 1 10 9 10 10 0 11 -4 4 -11 -12 -12 -13 -39 -1 -32 5 4 7 -3
4 -15 -3 -12 -9 -16 -12 -10 -4 6 -20 9 -36 8 -26 -2 -31 2 -40 31 -5 17 -15
32 -23 32 -7 0 -10 5 -7 11 8 12 -32 49 -53 49 -9 0 -12 -3 -9 -7 4 -3 1 -13
-6 -21 -7 -9 -7 -13 -1 -9 16 9 5 -40 -12 -54 -9 -7 -14 -8 -14 -1 0 5 -9 8
-21 5 -16 -5 -20 -12 -17 -34 4 -23 2 -26 -9 -18 -9 8 -13 8 -13 0 0 -6 5 -12
10 -12 6 -1 15 -3 20 -4 6 -1 14 -3 19 -4 5 0 9 -14 9 -31 -1 -27 -2 -28 -15
-12 -12 16 -13 16 -7 0 3 -10 1 -18 -5 -18 -19 0 -12 -16 11 -27 31 -13 91 5
83 25 -4 12 -3 13 10 2 8 -7 15 -8 15 -3 0 7 16 7 42 3 24 -5 46 -6 50 -4 4 3
5 -2 2 -10 -3 -8 -12 -12 -20 -9 -10 4 -12 0 -8 -10 9 -24 -5 -41 -22 -26 -8
6 -14 8 -14 3 0 -11 -52 -10 -70 1 -10 6 -12 4 -7 -8 4 -11 2 -14 -8 -11 -8 3
-13 11 -11 17 1 7 1 9 -1 5 -3 -4 -17 0 -31 8 -25 15 -26 15 -7 0 21 -18 26
-35 13 -52 -4 -5 1 -17 11 -26 15 -12 22 -13 32 -5 8 7 5 2 -5 -10 -19 -23
-10 -33 11 -12 7 7 10 4 9 -11 0 -11 -8 -25 -16 -30 -13 -9 -13 -11 0 -20 8
-5 10 -10 4 -10 -6 0 -11 -6 -11 -12 0 -7 13 -13 28 -13 15 0 27 2 27 5 -3 48
42 24 46 -25 1 -12 40 -13 43 -2 1 5 9 14 19 21 10 8 14 18 10 25 -4 6 -3 17
3 24 6 8 6 18 1 27 -7 10 -10 11 -10 3 0 -7 -4 -13 -9 -13 -5 0 -7 9 -4 20 3
11 10 17 17 14 6 -3 2 2 -9 11 l-20 17 20 -4 c12 -2 19 2 17 10 -1 8 2 11 7 8
5 -4 11 0 14 6 6 18 47 -26 47 -51 0 -31 -12 -55 -20 -41 -5 8 -9 4 -13 -9 -3
-14 -1 -19 6 -14 8 4 8 2 0 -9 -7 -8 -10 -18 -6 -22 4 -4 -1 -4 -12 0 -18 7
-18 6 -6 -9 12 -15 12 -17 -4 -11 -15 6 -16 4 -7 -13 6 -11 8 -23 5 -27 -3 -3
-1 -6 6 -6 8 0 11 7 7 15 -3 8 -1 15 3 15 5 0 12 -7 15 -16 3 -8 11 -12 17 -8
6 4 7 9 2 13 -5 3 -1 14 8 23 15 14 18 14 23 2 3 -8 12 -14 21 -14 8 0 15 -5
15 -11 0 -5 -6 -7 -12 -3 -10 5 -10 4 0 -7 18 -19 62 -20 54 -1 -4 11 -2 13 8
7 10 -6 12 -4 7 8 -3 10 -2 17 4 17 6 0 8 4 5 8 -2 4 -1 14 5 22 6 11 9 11 9
2 0 -11 35 -12 60 -2 3 1 8 2 12 1 4 0 5 6 1 15 -4 11 -8 12 -13 4 -4 -7 -9
-8 -12 -4 -4 8 -4 16 0 52 3 18 30 15 34 -5 6 -31 36 12 33 47 -3 31 1 33 57
33 9 0 21 10 27 23 8 18 7 22 -3 18 -8 -3 -17 0 -22 7 -4 7 -3 10 4 5 6 -3 14
-1 18 5 4 8 3 9 -4 5 -7 -4 -12 -2 -12 3 0 6 -3 10 -7 10 -19 -3 -30 2 -30 15
0 9 6 12 16 8 14 -5 14 -4 1 13 -9 11 -10 16 -2 11 11 -7 12 -3 12 32 0 8 -47
11 -67 4 -7 -2 -10 -9 -6 -16 3 -6 3 -8 -2 -4 -4 4 -14 3 -22 -4 -7 -6 -16 -8
-20 -5 -3 4 -12 2 -20 -4 -10 -9 -13 -8 -13 1 0 9 -3 10 -13 1 -11 -8 -18 -6
-32 9 -16 18 -14 25 8 21 4 -1 7 6 5 15 -2 13 5 18 30 20 19 1 32 -2 32 -9 0
-8 3 -8 8 -2 11 16 34 17 43 3 7 -10 9 -10 9 0 0 6 5 12 11 12 5 0 7 -5 3 -12
-4 -7 -3 -8 5 -4 6 4 9 12 6 17 -4 5 -2 9 4 9 6 0 7 8 4 18 -6 15 -5 16 12 2
14 -11 13 -7 -5 18 -22 29 -39 45 -25 23 3 -6 -3 -9 -14 -8 -11 0 -18 4 -15 8
2 4 1 9 -3 12 -5 2 -3 2 4 1 7 -2 11 7 9 24 -1 15 1 32 6 39 6 7 4 14 -4 19
-22 14 -37 13 -31 -2 3 -8 0 -14 -6 -14 -6 0 -11 6 -11 13 0 9 -3 8 -9 -2 -5
-8 -14 -10 -22 -5 -12 6 -12 5 -1 -8 11 -13 11 -18 0 -24 -7 -4 -10 -4 -6 1 4
4 3 14 -3 22 -9 10 -8 17 1 28 11 13 10 14 -3 10 -8 -4 -18 -1 -22 4 -3 6 -11
9 -16 6 -5 -3 -6 1 -3 9 3 9 2 16 -4 16 -12 0 -25 -47 -16 -62 4 -5 2 -13 -5
-17 -7 -5 -8 -17 -1 -40 8 -29 7 -34 -11 -38 -16 -5 -17 -8 -7 -21 10 -12 10
-14 1 -8 -7 4 -13 2 -13 -3 0 -8 -7 -7 -19 1 -11 7 -17 17 -13 23 3 5 -2 4
-11 -4 -20 -16 -23 -2 -4 18 10 11 10 13 0 7 -8 -5 -13 -1 -13 9 0 10 5 13 13
9 7 -5 6 0 -3 11 -9 11 -10 16 -2 11 6 -4 12 -4 12 1 0 4 7 17 16 28 13 17 16
18 25 5 10 -15 9 -8 -6 65 -3 16 -12 25 -23 24 -10 0 -12 -3 -4 -6 6 -2 12 -9
12 -15 0 -6 -8 -7 -17 -4 -11 5 -24 -1 -36 -16 -13 -16 -17 -18 -13 -5 3 9 1
17 -5 17 -6 0 -7 4 -4 10 4 6 -1 7 -12 3 -16 -6 -16 -5 -4 10 12 15 12 17 -4
11 -10 -4 -21 -1 -26 7 -5 8 -9 12 -10 9z m239 -450 c15 -8 29 -13 32 -12 8 1
5 -66 -3 -74 -3 -3 -11 -3 -17 1 -9 6 -9 9 0 15 8 5 7 9 -5 13 -9 4 -13 3 -10
-3 3 -6 -1 -10 -9 -10 -9 0 -16 7 -16 15 0 9 -6 12 -17 8 -11 -4 -14 -3 -9 5
4 7 2 12 -3 12 -6 0 -10 6 -8 13 1 6 -5 11 -13 9 -8 -1 -1 10 15 25 23 20 31
23 33 11 2 -8 15 -21 30 -28z m-218 -94 c0 -2 -8 -10 -17 -17 -16 -13 -17 -12
-4 4 13 16 21 21 21 13z m-10 -46 c0 -5 -5 -10 -11 -10 -5 0 -7 5 -4 10 3 6 8
10 11 10 2 0 4 -4 4 -10z"/>
<path d="M4106 3608 c3 -5 10 -6 15 -3 13 9 11 12 -6 12 -8 0 -12 -4 -9 -9z"/>
<path d="M745 3600 c3 -5 11 -10 16 -10 6 0 7 5 4 10 -3 6 -11 10 -16 10 -6 0
-7 -4 -4 -10z"/>
<path d="M550 3579 c0 -5 5 -7 10 -4 6 3 10 8 10 11 0 2 -4 4 -10 4 -5 0 -10
-5 -10 -11z"/>
<path d="M755 3561 c-3 -5 -2 -12 3 -15 5 -3 9 1 9 9 0 17 -3 19 -12 6z"/>
<path d="M1135 3560 c3 -5 8 -10 11 -10 2 0 4 5 4 10 0 6 -5 10 -11 10 -5 0
-7 -4 -4 -10z"/>
<path d="M4080 3366 c0 -2 8 -10 18 -17 15 -13 16 -12 3 4 -13 16 -21 21 -21
13z"/>
<path d="M1106 3332 c-3 -5 1 -9 9 -9 8 0 12 4 9 9 -3 4 -7 8 -9 8 -2 0 -6 -4
-9 -8z"/>
<path d="M590 3296 c0 -2 7 -7 16 -10 8 -3 12 -2 9 4 -6 10 -25 14 -25 6z"/>
<path d="M4235 3160 c3 -5 8 -10 11 -10 2 0 4 5 4 10 0 6 -5 10 -11 10 -5 0
-7 -4 -4 -10z"/>
<path d="M4166 3123 c-6 -14 -5 -15 5 -6 7 7 10 15 7 18 -3 3 -9 -2 -12 -12z"/>
<path d="M4747 2989 c7 -7 15 -10 18 -7 3 3 -2 9 -12 12 -14 6 -15 5 -6 -5z"/>
<path d="M1406 2972 c-3 -5 1 -9 9 -9 8 0 12 4 9 9 -3 4 -7 8 -9 8 -2 0 -6 -4
-9 -8z"/>
<path d="M353 2889 c-2 -23 3 -25 10 -4 4 8 3 16 -1 19 -4 3 -9 -4 -9 -15z"/>
<path d="M906 2398 c3 -5 10 -6 15 -3 13 9 11 12 -6 12 -8 0 -12 -4 -9 -9z"/>
<path d="M3106 2342 c-3 -5 1 -9 9 -9 8 0 15 4 15 9 0 4 -4 8 -9 8 -6 0 -12
-4 -15 -8z"/>
<path d="M4310 2240 c0 -5 5 -10 11 -10 5 0 7 5 4 10 -3 6 -8 10 -11 10 -2 0
-4 -4 -4 -10z"/>
<path d="M4288 2225 c-4 -4 -4 -14 -1 -23 5 -11 3 -13 -7 -7 -10 6 -11 4 -4
-6 20 -33 8 -45 -25 -25 -10 7 -12 5 -6 -4 5 -9 2 -10 -14 -5 -18 5 -20 3 -17
-17 3 -13 5 -29 5 -37 1 -7 7 -11 16 -7 10 4 15 -1 15 -16 0 -21 0 -21 15 -2
13 16 14 16 9 2 -6 -17 5 -23 30 -19 5 1 3 -6 -5 -15 -9 -12 -9 -15 -1 -10 7
4 12 2 12 -4 0 -6 6 -8 13 -4 10 6 10 4 0 -7 -7 -7 -13 -23 -13 -36 0 -16 -4
-21 -15 -17 -8 4 -13 10 -10 14 3 5 1 11 -4 14 -5 4 -13 1 -17 -5 -5 -8 -3 -9
6 -4 9 5 11 4 6 -3 -11 -18 -16 -15 -27 18 -6 17 -17 30 -25 30 -8 0 -11 6 -8
15 4 8 -1 17 -10 21 -9 3 -16 10 -16 16 0 5 5 6 10 3 6 -3 10 -2 10 4 0 5 -12
8 -27 6 -16 -2 -34 -4 -42 -4 -11 -1 -10 -5 5 -17 10 -8 13 -13 7 -9 -18 9
-33 -3 -26 -21 4 -12 8 -12 22 -2 13 10 13 9 -2 -8 -9 -11 -14 -23 -11 -27 4
-4 -2 -5 -12 -3 -26 5 -67 -11 -62 -25 2 -6 7 -10 12 -9 12 2 28 -28 21 -39
-3 -5 -1 -13 5 -16 6 -4 9 -3 8 2 -2 4 1 9 7 11 5 2 11 -1 13 -6 2 -6 -6 -13
-18 -17 -11 -3 -18 -11 -15 -16 4 -5 0 -9 -7 -9 -10 0 -10 -2 1 -9 11 -7 11
-9 0 -14 -10 -4 -8 -6 4 -6 12 -1 16 -5 11 -13 -5 -9 -3 -9 9 1 9 7 26 11 38
8 16 -4 18 -3 8 9 -12 14 -6 17 42 17 9 0 16 6 16 13 0 11 -4 11 -16 2 -9 -7
-8 -3 3 8 13 13 20 15 23 7 3 -7 9 -13 14 -13 6 0 7 6 3 13 -4 7 -3 9 2 4 5
-5 10 -13 10 -18 3 -22 6 -23 14 -4 8 19 9 19 9 -2 1 -30 -2 -39 -13 -35 -5 2
-3 -5 5 -14 8 -10 9 -15 2 -11 -6 4 -14 3 -18 -3 -8 -13 -115 -9 -108 5 2 5
-4 0 -15 -12 -11 -12 -22 -20 -24 -18 -3 3 -4 -4 -3 -15 1 -11 5 -23 10 -27 4
-5 5 -2 1 5 -10 17 2 15 21 -4 9 -8 22 -13 29 -10 18 7 25 -6 13 -24 -6 -11
-9 -12 -9 -2 0 7 -4 10 -10 7 -15 -9 -12 -37 3 -30 6 4 3 -1 -7 -9 -11 -9 -14
-16 -7 -16 7 0 10 -4 7 -8 -2 -4 6 -8 19 -8 13 0 21 4 19 8 -3 4 -1 8 5 8 5 0
12 -6 15 -12 4 -7 4 -3 2 9 -4 20 -2 21 16 12 12 -6 18 -18 15 -28 -3 -12 4
-21 24 -28 21 -8 27 -8 22 0 -4 6 -1 8 8 5 11 -5 13 7 11 64 -3 49 0 68 7 64
6 -4 11 -3 11 3 0 5 -6 12 -12 15 -7 4 -3 4 10 2 12 -2 22 -1 22 3 0 4 7 8 15
8 8 0 12 -4 9 -9 -3 -4 0 -8 6 -8 7 0 10 -6 7 -14 -3 -8 1 -17 9 -20 8 -3 14
-11 14 -17 0 -8 -4 -9 -13 0 -16 12 -28 5 -21 -13 3 -7 -5 -18 -18 -25 l-23
-12 24 5 25 5 -27 -25 c-27 -25 -36 -41 -16 -28 8 4 8 1 1 -13 -9 -16 -8 -20
6 -20 9 0 23 5 31 11 11 8 13 8 7 -1 -5 -9 -2 -11 8 -7 9 3 14 10 11 14 -3 4
2 10 10 14 17 6 29 -9 19 -26 -5 -7 -3 -8 6 -3 9 6 10 2 5 -16 -7 -23 -7 -24
9 -4 12 16 15 17 16 4 0 -9 7 -16 15 -16 8 0 12 4 9 9 -3 4 1 8 8 8 9 0 9 3
-2 10 -12 7 -12 10 -1 10 7 0 11 6 7 15 -7 19 3 45 16 45 7 0 6 -5 -1 -14 -9
-11 -6 -13 14 -13 14 0 25 4 25 9 0 5 -5 6 -12 2 -7 -4 -8 -3 -4 5 6 9 11 9
22 0 11 -9 16 -7 23 12 5 14 5 25 0 27 -5 2 -6 9 -2 15 4 7 -2 5 -12 -3 -10
-8 -16 -10 -12 -4 4 7 -1 18 -10 25 -14 12 -16 12 -8 -1 8 -13 6 -13 -8 -2 -9
8 -21 11 -26 7 -7 -4 -8 1 -4 11 4 12 3 15 -6 10 -6 -4 -11 -4 -10 1 3 20 -2
34 -11 28 -5 -3 -10 3 -10 14 0 11 5 23 11 27 8 4 7 9 -2 16 -11 8 -11 9 1 5
8 -2 14 -11 14 -20 -1 -9 4 -13 12 -10 8 3 12 9 9 13 -3 5 -1 12 5 15 6 4 9 3
8 -2 -1 -4 6 -18 17 -31 11 -12 20 -26 20 -31 0 -4 8 -15 18 -25 9 -10 17 -25
17 -34 0 -15 2 -15 10 -2 9 13 14 7 11 -12 0 -4 6 -5 15 -1 13 5 13 7 2 14
-10 7 -9 9 4 9 19 0 20 23 4 49 -6 10 -5 12 2 7 7 -4 12 -3 12 1 0 5 15 8 33
8 21 -1 34 3 34 11 0 7 -4 11 -9 8 -4 -3 -5 2 -2 10 3 8 13 13 22 10 9 -3 7 1
-5 7 -13 7 -23 17 -23 23 0 6 -5 4 -10 -4 -8 -12 -10 -10 -10 8 0 14 -4 21
-11 17 -6 -4 -5 2 2 13 7 12 17 18 21 16 4 -3 8 -1 8 5 0 5 3 17 7 26 5 15 3
16 -14 7 -13 -7 -23 -8 -30 -1 -6 6 -19 6 -35 0 -14 -5 -29 -7 -33 -3 -4 4 -3
-2 3 -13 10 -20 8 -21 -39 -19 -27 1 -52 4 -55 6 -10 10 -12 48 -3 53 5 4 9 0
9 -7 0 -10 3 -9 9 2 6 8 7 18 5 22 -6 9 -7 9 58 11 25 1 44 -2 41 -6 -3 -5
-11 -6 -19 -3 -7 3 -16 1 -19 -5 -4 -5 6 -8 24 -7 17 1 31 8 31 15 0 7 7 13
16 13 9 0 12 -5 8 -12 -4 -7 -3 -8 4 -4 27 16 11 52 -20 47 -5 0 -7 5 -5 12 1
6 -3 11 -10 10 -15 -3 -22 18 -12 42 5 14 8 15 9 5 1 -8 5 -4 9 10 10 33 3 44
-17 28 -13 -11 -15 -11 -10 4 5 11 2 15 -10 13 -9 -1 -16 -9 -14 -18 1 -8 -3
-19 -9 -23 -8 -5 -9 -3 -4 6 6 10 4 12 -8 7 -10 -4 -16 -2 -14 6 1 7 -7 11
-18 10 -11 -1 -15 0 -8 3 7 3 9 12 6 21 -5 12 -3 14 8 8 8 -4 11 -5 7 -1 -3 4
-8 6 -11 4 -2 -1 -11 3 -20 11 -12 9 -17 10 -17 2 0 -7 -4 -10 -9 -6 -6 3 -8
-3 -6 -14 2 -11 -3 -22 -11 -25 -8 -3 -14 -10 -14 -16 0 -6 6 -8 13 -4 9 6 9
4 1 -7 -6 -8 -11 -25 -12 -39 -1 -19 1 -21 8 -10 7 11 9 10 7 -7 0 -12 -5 -19
-9 -17 -4 3 -8 -1 -8 -9 0 -24 -28 -41 -43 -28 -8 6 -16 9 -18 7 -2 -3 -4 15
-3 40 1 28 -2 41 -9 37 -6 -3 -7 -1 -3 6 4 6 17 9 29 6 12 -2 16 -2 10 1 -7 3
-13 10 -13 15 0 6 4 8 9 4 5 -3 12 -1 16 5 3 5 1 10 -5 10 -7 0 -8 6 -2 18 5
9 8 25 7 35 -2 10 1 14 7 11 6 -4 8 -2 4 4 -10 17 -48 10 -41 -7 3 -9 3 -12
-1 -9 -4 4 -14 3 -23 -2 -20 -10 -35 -2 -44 23 -5 14 -11 16 -26 8 -13 -8 -20
-8 -23 0 -2 6 -6 7 -10 4z"/>
<path d="M4454 2175 c3 -23 12 -26 13 -5 1 11 -2 20 -7 20 -4 0 -7 -7 -6 -15z"/>
<path d="M4193 2135 c0 -8 4 -12 9 -9 5 3 6 10 3 15 -9 13 -12 11 -12 -6z"/>
<path d="M4110 2019 c0 -5 5 -7 10 -4 6 3 10 8 10 11 0 2 -4 4 -10 4 -5 0 -10
-5 -10 -11z"/>
<path d="M4430 2018 c0 -4 4 -8 9 -8 6 0 12 4 15 8 3 5 -1 9 -9 9 -8 0 -15 -4
-15 -9z"/>
<path d="M4550 1980 c0 -5 5 -10 11 -10 5 0 7 5 4 10 -3 6 -8 10 -11 10 -2 0
-4 -4 -4 -10z"/>
<path d="M4671 1954 c6 -7 16 -11 21 -8 11 7 3 17 -18 20 -12 2 -13 -1 -3 -12z"/>
<path d="M4515 1930 c3 -5 8 -10 11 -10 2 0 4 5 4 10 0 6 -5 10 -11 10 -5 0
-7 -4 -4 -10z"/>
<path d="M296 1893 c9 -7 21 -10 27 -6 6 3 7 1 3 -5 -4 -6 -13 -9 -20 -6 -8 3
-16 -4 -20 -18 -9 -35 -8 -38 12 -31 9 3 14 3 11 -1 -10 -11 -50 -16 -44 -5 4
5 1 9 -5 9 -6 0 -8 5 -4 12 8 13 -12 3 -38 -20 -14 -11 -15 -18 -7 -29 6 -7
18 -13 25 -13 8 0 14 -10 14 -22 0 -18 2 -20 10 -8 8 12 10 12 16 -3 5 -15 9
-15 22 -5 13 11 15 10 9 -4 -3 -10 -2 -20 3 -23 5 -3 7 -14 5 -25 -2 -11 1
-20 7 -20 5 0 7 7 4 16 -3 8 -2 12 4 9 15 -9 12 -35 -4 -35 -8 0 -17 -7 -20
-16 -6 -16 -8 -16 -25 0 -9 9 -21 13 -24 9 -6 -5 -12 28 -8 50 0 4 -6 7 -15 7
-8 0 -12 -4 -9 -10 3 -5 1 -10 -4 -10 -14 0 -14 17 -1 25 12 7 -12 35 -30 35
-6 0 -9 4 -6 9 3 5 -1 12 -10 15 -24 9 -28 7 -15 -8 9 -10 7 -17 -6 -27 -16
-12 -17 -12 -6 2 10 13 10 16 -1 16 -8 0 -12 -7 -11 -16 2 -9 4 -20 4 -24 1
-5 6 -5 11 -2 6 3 10 2 10 -4 0 -5 -5 -13 -10 -16 -6 -4 -7 -12 -4 -18 4 -7 4
-9 -1 -5 -4 4 -15 2 -24 -4 -13 -10 -14 -10 -3 2 21 24 13 33 -13 16 -14 -9
-30 -14 -35 -11 -9 5 -5 -33 4 -42 3 -3 16 -6 30 -7 29 -1 34 -20 10 -34 -9
-5 -18 -23 -20 -40 -3 -26 -1 -29 16 -25 12 3 20 0 20 -6 0 -7 -4 -10 -9 -6
-5 3 -12 1 -15 -4 -3 -4 2 -8 12 -7 9 0 18 -3 18 -9 1 -5 -2 -9 -8 -7 -5 1 -7
-2 -3 -8 3 -5 3 -15 -1 -21 -4 -8 -9 -7 -15 2 -6 10 -9 10 -9 2 0 -12 24 -29
45 -33 6 -1 12 -4 15 -7 3 -4 -1 -3 -7 1 -7 4 -13 2 -13 -3 0 -17 21 -13 37 7
13 16 13 15 4 -4 -7 -14 -7 -24 0 -31 6 -6 5 -10 -5 -10 -8 0 -12 5 -9 11 3 6
2 8 -2 4 -12 -11 -16 -60 -4 -53 5 4 9 1 9 -4 0 -6 -6 -11 -12 -11 -9 0 -8 -3
2 -9 15 -10 33 -4 26 8 -3 4 1 8 9 8 8 0 12 -4 9 -9 -3 -4 2 -5 10 -2 9 3 13
10 10 15 -3 5 2 9 12 9 11 0 15 -6 11 -20 -3 -11 -1 -20 5 -20 6 0 8 -6 5 -14
-4 -9 3 -13 21 -12 31 1 47 17 29 29 -8 5 -5 7 8 4 11 -2 19 -9 17 -16 -1 -7
2 -10 8 -6 6 4 10 -5 11 -22 0 -15 3 -22 6 -15 2 6 9 12 14 12 6 0 7 -5 3 -12
-5 -8 -2 -9 10 -5 10 4 21 7 24 7 4 0 1 4 -6 9 -10 6 -7 10 12 13 14 3 26 1
26 -4 0 -6 7 -7 16 -4 15 6 15 4 3 -11 -9 -11 -10 -14 -1 -9 6 4 12 3 12 -2 0
-5 7 -9 15 -9 8 0 15 4 15 9 0 4 5 7 12 6 6 -2 12 9 13 24 1 15 -2 25 -6 22
-4 -2 -6 -14 -4 -26 3 -11 1 -18 -2 -14 -12 12 -12 40 0 48 9 6 8 11 -3 18
-11 7 -11 10 -2 10 7 0 15 -7 18 -15 4 -9 19 -15 41 -15 20 0 32 4 28 10 -3 6
0 10 7 10 10 0 10 2 -1 9 -8 5 -11 15 -8 23 3 10 -2 14 -16 13 -28 -3 -47 5
-47 17 0 6 8 4 18 -3 15 -13 16 -12 3 4 -7 9 -21 16 -30 15 -10 -2 -17 5 -19
20 -3 17 -7 20 -16 13 -9 -8 -12 -3 -12 19 0 16 3 27 8 24 5 -3 5 -10 2 -16
-4 -7 -2 -8 4 -4 6 4 9 13 6 20 -4 10 4 13 30 12 19 0 38 -5 43 -10 5 -5 3 -6
-4 -2 -7 4 -13 2 -13 -3 0 -6 5 -11 11 -11 6 0 8 -7 5 -16 -3 -8 -2 -12 3 -9
9 5 27 -32 23 -47 -1 -5 2 -8 7 -8 5 0 11 3 14 8 2 4 2 2 1 -5 -3 -14 29 -28
34 -14 2 6 7 9 11 7 4 -3 8 1 8 9 0 8 -4 15 -9 15 -4 0 -8 5 -8 11 0 5 5 7 11
3 8 -5 8 -1 0 14 -16 29 -16 30 34 27 24 -1 42 2 39 7 -3 5 0 16 8 25 11 14
10 15 -11 8 -20 -6 -23 -4 -18 9 5 12 0 16 -21 17 -15 0 -21 3 -14 6 6 2 12
11 12 18 0 8 5 17 12 21 7 5 8 3 3 -6 -5 -8 -4 -11 3 -6 6 3 9 19 8 34 -3 24
-7 27 -44 28 -32 0 -39 -2 -31 -12 7 -8 6 -15 -2 -20 -8 -4 -9 -3 -5 4 4 7 3
12 -3 12 -5 0 -13 -5 -16 -10 -4 -6 -11 -7 -17 -4 -7 4 -8 2 -4 -5 4 -6 1 -13
-6 -16 -31 -10 -53 -9 -54 3 -1 6 -2 17 -3 23 -1 8 -6 8 -16 -1 -10 -9 -15 -9
-15 -1 0 6 5 11 10 11 6 0 15 10 21 23 9 20 17 23 79 22 38 0 77 3 87 7 14 7
12 7 -6 4 -18 -4 -21 -2 -12 7 18 18 13 44 -9 50 -12 3 -18 1 -14 -5 4 -6 -3
-5 -15 1 -27 15 -27 26 1 45 12 9 19 16 14 16 -5 0 -2 8 5 17 10 11 10 14 2 9
-7 -4 -13 -3 -13 3 0 5 -8 8 -17 6 -10 -2 -26 -4 -36 -4 -10 -1 -15 -5 -12
-11 3 -5 2 -10 -2 -10 -5 0 -13 10 -18 23 -6 12 -17 21 -25 19 -12 -3 -13 -1
-2 9 15 16 16 29 1 29 -5 0 -7 -4 -4 -10 3 -5 1 -10 -4 -10 -6 0 -11 5 -11 12
0 15 -15 0 -15 -15 -1 -7 -7 -11 -13 -9 -9 2 -10 -3 -4 -15 5 -10 8 -31 6 -48
-2 -16 1 -35 7 -41 7 -8 6 -15 -2 -20 -8 -4 -9 -3 -5 4 4 7 2 12 -4 12 -7 0
-14 -9 -17 -19 -6 -23 -43 -36 -43 -15 0 8 -4 14 -10 14 -5 0 -7 -8 -3 -17 3
-10 3 -15 -2 -11 -4 4 -9 21 -10 38 -2 25 1 30 13 25 12 -4 11 -1 -4 16 l-19
22 23 -12 c12 -7 22 -8 21 -4 -4 21 2 33 13 27 7 -5 8 -3 2 7 -13 21 -13 39
-1 36 7 -1 12 7 12 17 0 25 -65 32 -66 7 0 -11 -2 -12 -6 -3 -2 6 -13 12 -24
12 -16 0 -23 9 -21 30 0 3 -15 5 -34 5 -29 0 -32 -2 -18 -12z m84 -39 c0 -8
-19 -13 -24 -6 -3 5 1 9 9 9 8 0 15 -2 15 -3z m-280 -200 c0 -8 -19 -13 -24
-6 -3 5 1 9 9 9 8 0 15 -2 15 -3z m30 -78 c0 -2 -7 -7 -16 -10 -8 -3 -12 -2
-9 4 6 10 25 14 25 6z m113 -16 c4 0 6 4 3 9 -4 5 5 4 18 -2 33 -16 32 -66 -1
-62 -20 2 -21 0 -11 -13 10 -13 10 -14 1 -8 -8 4 -13 2 -13 -6 0 -9 -3 -9 -8
-2 -4 6 -18 17 -32 24 -21 10 -23 10 -12 -1 6 -7 12 -18 12 -23 0 -6 -5 -4
-10 4 -7 12 -12 12 -22 2 -6 -6 -17 -12 -22 -12 -6 0 -3 7 7 14 15 12 16 14 2
20 -24 9 -17 26 11 26 14 0 23 4 19 10 -6 9 8 15 29 11 5 -1 5 6 2 16 -6 14
-5 16 5 6 7 -7 17 -13 22 -13z m136 -106 c-7 -8 -9 -17 -5 -21 3 -3 6 -1 6 5
0 6 7 9 16 5 13 -5 13 -7 2 -14 -10 -7 -10 -9 2 -9 13 0 13 -1 0 -10 -9 -6
-11 -10 -3 -10 7 0 10 -7 6 -16 -5 -13 -7 -13 -14 -2 -7 10 -9 10 -10 -2 -4
-31 -5 -36 -16 -54 -9 -17 -13 -17 -29 -5 -11 8 -20 21 -22 29 -3 11 3 9 20
-5 23 -20 23 -20 8 0 -8 11 -19 23 -23 26 -4 3 -1 11 6 18 8 6 13 21 10 31 -4
14 0 20 12 20 13 0 15 3 7 13 -8 9 -4 12 14 13 20 2 23 -1 13 -12z m-49 -48
c0 -3 -4 -8 -10 -11 -5 -3 -10 -1 -10 4 0 6 5 11 10 11 6 0 10 -2 10 -4z"/>
<path d="M460 1821 c0 -5 7 -12 16 -15 14 -5 15 -4 4 9 -14 17 -20 19 -20 6z"/>
<path d="M637 1753 c-4 -3 -7 -11 -7 -17 0 -6 5 -5 12 2 6 6 9 14 7 17 -3 3
-9 2 -12 -2z"/>
<path d="M4250 1616 c0 -2 7 -7 16 -10 8 -3 12 -2 9 4 -6 10 -25 14 -25 6z"/>
<path d="M919 1468 c-5 -18 -6 -38 -1 -34 7 8 12 36 6 36 -2 0 -4 -1 -5 -2z"/>
<path d="M4136 1068 c3 -5 10 -6 15 -3 13 9 11 12 -6 12 -8 0 -12 -4 -9 -9z"/>
<path d="M2107 16 c-16 -12 -15 -13 10 -13 16 0 22 2 15 4 -6 3 -10 9 -6 14 7
12 2 11 -19 -5z"/>
<path d="M2156 12 c-3 -5 1 -9 9 -9 8 0 12 4 9 9 -7 10 -11 10 -18 0z"/>
</g>
</svg>
